<svg width="24" height="24" viewBox="0 0 24 24" fill="none" xmlns="http://www.w3.org/2000/svg">
<path d="M12 1C5.93477 1 1 5.93435 1 12C1 18.0657 5.93477 23 12 23C18.0652 23 23 18.0657 23 12C23 5.93435 18.0652 1 12 1ZM12 22.1538C6.40142 22.1538 1.84615 17.5986 1.84615 12C1.84615 6.40142 6.40142 1.84615 12 1.84615C17.5986 1.84615 22.1538 6.40142 22.1538 12C22.1538 17.5986 17.5986 22.1538 12 22.1538Z" fill="#101212" stroke="#101212" stroke-width="0.5"/>
<path d="M16.4536 8.46611L10.9648 14.6409L7.65816 11.9956C7.50459 11.8724 7.27924 11.8978 7.15639 12.0514C7.03318 12.2056 7.05818 12.4303 7.2121 12.5535L10.7834 15.4105C10.8491 15.463 10.9281 15.4887 11.0066 15.4887C11.1052 15.4887 11.2034 15.448 11.2738 15.3688L16.9879 8.94038C17.1189 8.79325 17.1057 8.56718 16.9582 8.43647C16.8104 8.30505 16.585 8.31826 16.4536 8.46611Z" fill="#101212" stroke="#101212" stroke-width="0.5"/>
</svg>