<svg width="32" height="32" viewBox="0 0 32 32" fill="none" xmlns="http://www.w3.org/2000/svg">
<path d="M17.3335 5.33333H10.1335C8.45334 5.33333 7.61326 5.33333 6.97152 5.66031C6.40704 5.94793 5.9481 6.40687 5.66048 6.97136C5.3335 7.61309 5.3335 8.45317 5.3335 10.1333V21.8667C5.3335 23.5468 5.3335 24.3869 5.66048 25.0286C5.9481 25.5931 6.40704 26.0521 6.97152 26.3397C7.61326 26.6667 8.45334 26.6667 10.1335 26.6667H21.8668C23.547 26.6667 24.3871 26.6667 25.0288 26.3397C25.5933 26.0521 26.0522 25.5931 26.3398 25.0286C26.6668 24.3869 26.6668 23.5468 26.6668 21.8667V14.6667" stroke="black" stroke-width="2" stroke-linecap="round" stroke-linejoin="round"/>
<path d="M5.3335 21.3333L11.2931 15.3737C11.6836 14.9832 12.3167 14.9832 12.7073 15.3737L17.3335 20M17.3335 20L21.2931 16.0404C21.6836 15.6499 22.3168 15.6499 22.7073 16.0404L26.6668 20M17.3335 20L20.3335 23" stroke="black" stroke-width="2" stroke-linecap="round" stroke-linejoin="round"/>
<path d="M24.6668 4V7.33333M24.6668 10.6667V7.33333M24.6668 7.33333H21.3335M24.6668 7.33333H28.0002" stroke="black" stroke-width="2" stroke-linecap="round" stroke-linejoin="round"/>
</svg>
