<svg width="10" height="10" viewBox="0 0 10 10" fill="none" xmlns="http://www.w3.org/2000/svg">
<path d="M8.5 1.5873H7V1.0582C7 0.777549 6.89464 0.508391 6.70711 0.30994C6.51957 0.111489 6.26522 0 6 0H4C3.73478 0 3.48043 0.111489 3.29289 0.30994C3.10536 0.508391 3 0.777549 3 1.0582V1.5873H1.5C1.10218 1.5873 0.720644 1.75453 0.43934 2.05221C0.158035 2.34989 0 2.75362 0 3.1746V7.93651C0 8.35749 0.158035 8.76122 0.43934 9.0589C0.720644 9.35658 1.10218 9.52381 1.5 9.52381H8.5C8.89782 9.52381 9.27936 9.35658 9.56066 9.0589C9.84196 8.76122 10 8.35749 10 7.93651V3.1746C10 2.75362 9.84196 2.34989 9.56066 2.05221C9.27936 1.75453 8.89782 1.5873 8.5 1.5873ZM4 1.0582H6V1.5873H4V1.0582ZM9 7.93651C9 8.07683 8.94732 8.21141 8.85355 8.31064C8.75979 8.40986 8.63261 8.46561 8.5 8.46561H1.5C1.36739 8.46561 1.24021 8.40986 1.14645 8.31064C1.05268 8.21141 1 8.07683 1 7.93651V4.96825L3.34 5.82011C3.39309 5.82773 3.44691 5.82773 3.5 5.82011H6.5C6.55422 5.81905 6.60806 5.81014 6.66 5.79365L9 4.96825V7.93651ZM9 3.85185L6.42 4.7619H3.58L1 3.85185V3.1746C1 3.03428 1.05268 2.8997 1.14645 2.80047C1.24021 2.70125 1.36739 2.6455 1.5 2.6455H8.5C8.63261 2.6455 8.75979 2.70125 8.85355 2.80047C8.94732 2.8997 9 3.03428 9 3.1746V3.85185Z" fill="white"/>
</svg>
