<svg width="64" height="64" viewBox="0 0 64 64" fill="none" xmlns="http://www.w3.org/2000/svg">
<g clip-path="url(#clip0_48_96190)">
<path d="M8.12511 34.5004C6.08775 30.6942 5.48624 26.2826 6.43027 22.0699C7.37429 17.8572 9.80096 14.1241 13.2678 11.5513C16.7346 8.97856 21.0106 7.73751 25.3162 8.05446C29.6217 8.37141 33.6699 10.2253 36.7226 13.278C39.7753 16.3307 41.6291 20.3789 41.9461 24.6844C42.263 28.9899 41.022 33.2659 38.4492 36.7328C35.8765 40.1996 32.1434 42.6262 27.9307 43.5703C23.718 44.5143 19.3063 43.9128 15.5001 41.8754L8.56011 43.9154C8.2155 44.0166 7.85 44.0232 7.502 43.9344C7.15399 43.8455 6.83633 43.6646 6.58236 43.4107C6.3284 43.1567 6.14751 42.8391 6.05869 42.491C5.96988 42.143 5.97641 41.7775 6.07761 41.4329L8.12511 34.5004Z" stroke="#AFAFAF" stroke-width="2.5" stroke-linecap="round" stroke-linejoin="round"/>
<path d="M40.9851 20.0273C44.0089 20.1917 46.9424 21.1164 49.5139 22.7156C52.0855 24.3149 54.212 26.5371 55.6965 29.1765C57.1811 31.8158 57.9758 34.7871 58.007 37.8153C58.0383 40.8434 57.305 43.8304 55.8751 46.4998L57.9151 53.4398C58.0163 53.7844 58.0229 54.15 57.9341 54.498C57.8452 54.846 57.6643 55.1636 57.4104 55.4176C57.1564 55.6716 56.8388 55.8524 56.4907 55.9413C56.1427 56.0301 55.7772 56.0235 55.4326 55.9223L48.5001 53.8748C46.2101 55.0995 43.6823 55.8146 41.0901 55.9709C38.4978 56.1273 35.9024 55.7213 33.4818 54.7807C31.0611 53.8401 28.8725 52.3873 27.0659 50.5217C25.2593 48.6561 23.8775 46.4219 23.0151 43.9723" stroke="#AFAFAF" stroke-width="2.5" stroke-linecap="round" stroke-linejoin="round"/>
</g>
<defs>
<clipPath id="clip0_48_96190">
<rect width="64" height="64" fill="white"/>
</clipPath>
</defs>
</svg>
