<svg width="32" height="32" viewBox="0 0 32 32" fill="none" xmlns="http://www.w3.org/2000/svg">
<g clip-path="url(#clip0_375_7712)">
<path d="M32 0H0V32H32V0Z" fill="#0052FF"/>
<path fill-rule="evenodd" clip-rule="evenodd" d="M4.75 16C4.75 22.2132 9.78678 27.25 16 27.25C22.2132 27.25 27.25 22.2132 27.25 16C27.25 9.78678 22.2132 4.75 16 4.75C9.78678 4.75 4.75 9.78678 4.75 16ZM13.125 12.375C12.7108 12.375 12.375 12.7108 12.375 13.125V18.875C12.375 19.2892 12.7108 19.625 13.125 19.625H18.875C19.2892 19.625 19.625 19.2892 19.625 18.875V13.125C19.625 12.7108 19.2892 12.375 18.875 12.375H13.125Z" fill="white"/>
</g>
<defs>
<clipPath id="clip0_375_7712">
<rect width="32" height="32" rx="6" fill="white"/>
</clipPath>
</defs>
</svg>
