<svg width="35" height="34" viewBox="0 0 35 34" fill="none" xmlns="http://www.w3.org/2000/svg">
<path fill-rule="evenodd" clip-rule="evenodd" d="M17.504 2.13379C25.7178 2.13379 32.3791 8.79504 32.3791 17.0089C32.3791 25.2227 25.7178 31.884 17.504 31.884C9.29016 31.884 2.62891 25.2227 2.62891 17.0089C2.62891 8.79504 9.29016 2.13379 17.504 2.13379ZM14.415 21.8404L10.7732 18.1956C10.1528 17.5748 10.1526 16.5625 10.7732 15.9418C11.3939 15.3212 12.4108 15.3251 13.0269 15.9418L15.5944 18.5112L21.9813 12.1243C22.602 11.5036 23.6144 11.5036 24.235 12.1243C24.8557 12.7449 24.8548 13.7582 24.235 14.378L16.7194 21.8936C16.0996 22.5134 15.0863 22.5143 14.4657 21.8936C14.4483 21.8762 14.4314 21.8585 14.415 21.8404Z" fill="#00BA00"/>
</svg>
