<svg width="21" height="18" viewBox="0 0 21 18" fill="none" xmlns="http://www.w3.org/2000/svg">
<path d="M14.7222 5H18.9444C19.5274 5 20 5.44772 20 6V17L16.4818 14.231C16.2923 14.0818 16.053 14 15.8066 14H7.33333C6.75037 14 6.27778 13.5523 6.27778 13V10M14.7222 5V2C14.7222 1.44772 14.2496 1 13.6667 1H2.05556C1.47259 1 1 1.44772 1 2V13.0003L4.51817 10.2308C4.70769 10.0817 4.94698 10 5.19336 10H6.27778M14.7222 5V9C14.7222 9.55229 14.2496 10 13.6667 10H6.27778" stroke="black" stroke-width="2" stroke-linecap="round" stroke-linejoin="round"/>
</svg>
