<svg width="33" height="33" viewBox="0 0 33 33" fill="none" xmlns="http://www.w3.org/2000/svg">
<g clip-path="url(#clip0_247_694)">
<path d="M27.9359 5.71397C25.8326 4.74889 23.5771 4.03785 21.2189 3.63061C21.1759 3.62275 21.133 3.6424 21.1109 3.68168C20.8208 4.1976 20.4995 4.87066 20.2745 5.39968C17.7381 5.01995 15.2146 5.01995 12.7302 5.39968C12.5051 4.8589 12.1722 4.1976 11.8808 3.68168C11.8587 3.64371 11.8158 3.62407 11.7728 3.63061C9.41587 4.03655 7.1604 4.74759 5.05579 5.71397C5.03757 5.72183 5.02195 5.73494 5.01158 5.75195C0.733414 12.1434 -0.438557 18.3778 0.136373 24.5349C0.138974 24.5651 0.155884 24.5939 0.179297 24.6122C3.00191 26.6851 5.7361 27.9435 8.41951 28.7776C8.46245 28.7907 8.50796 28.775 8.53529 28.7396C9.17005 27.8728 9.73588 26.9588 10.221 25.9976C10.2497 25.9413 10.2223 25.8745 10.1638 25.8522C9.26631 25.5118 8.4117 25.0967 7.58963 24.6253C7.5246 24.5873 7.5194 24.4943 7.57922 24.4498C7.75221 24.3202 7.92525 24.1853 8.09044 24.0491C8.12032 24.0242 8.16197 24.019 8.19711 24.0347C13.5978 26.5004 19.4446 26.5004 24.7816 24.0347C24.8167 24.0177 24.8583 24.0229 24.8895 24.0478C25.0548 24.184 25.2278 24.3202 25.4021 24.4498C25.4619 24.4943 25.458 24.5873 25.3929 24.6253C24.5709 25.1058 23.7163 25.5118 22.8175 25.8509C22.7589 25.8732 22.7329 25.9413 22.7615 25.9976C23.2571 26.9574 23.8229 27.8714 24.446 28.7383C24.472 28.775 24.5188 28.7907 24.5618 28.7776C27.2582 27.9435 29.9924 26.6851 32.815 24.6122C32.8397 24.5939 32.8553 24.5664 32.8579 24.5362C33.546 17.418 31.7054 11.2347 27.9788 5.75325C27.9697 5.73494 27.9541 5.72183 27.9359 5.71397ZM11.0275 20.7859C9.40156 20.7859 8.06181 19.2931 8.06181 17.4599C8.06181 15.6266 9.37558 14.1339 11.0275 14.1339C12.6925 14.1339 14.0192 15.6397 13.9932 17.4599C13.9932 19.2931 12.6794 20.7859 11.0275 20.7859ZM21.9928 20.7859C20.3669 20.7859 19.0271 19.2931 19.0271 17.4599C19.0271 15.6266 20.3408 14.1339 21.9928 14.1339C23.6577 14.1339 24.9845 15.6397 24.9585 17.4599C24.9585 19.2931 23.6577 20.7859 21.9928 20.7859Z" fill="black" fill-opacity="1"/>
</g>
<defs>
<clipPath id="clip0_247_694">
<rect width="33" height="33" fill="white"/>
</clipPath>
</defs>
</svg>
