<svg width="14" height="12" viewBox="0 0 14 12" fill="none" xmlns="http://www.w3.org/2000/svg">
<path d="M9.66667 3.52632H12.3333C12.7015 3.52632 13 3.80908 13 4.15789V11.1053L10.778 9.35639C10.6583 9.26219 10.5072 9.21053 10.3516 9.21053H5C4.63181 9.21053 4.33333 8.92776 4.33333 8.57895V6.68421M9.66667 3.52632V1.63158C9.66667 1.28277 9.36819 1 9 1H1.66667C1.29848 1 1 1.28277 1 1.63158V8.57913L3.22201 6.82998C3.3417 6.73578 3.49283 6.68421 3.64844 6.68421H4.33333M9.66667 3.52632V6.05263C9.66667 6.40144 9.36819 6.68421 9 6.68421H4.33333" stroke="#707070" stroke-width="1.26316" stroke-linecap="round" stroke-linejoin="round"/>
</svg>
