<svg width="16" height="18" viewBox="0 0 16 18" fill="none" xmlns="http://www.w3.org/2000/svg">
<path fill-rule="evenodd" clip-rule="evenodd" d="M6.73788 13.6269C5.96427 13.6269 5.31895 13.0357 5.2514 12.265C5.11015 10.6538 5.07441 9.03529 5.14427 7.41999C5.05994 7.41434 4.97563 7.40845 4.89133 7.40231L3.40178 7.29373C2.44973 7.22432 1.91752 6.16276 2.43151 5.35837C3.5277 3.64286 5.53693 1.72281 7.19038 0.535071C7.67419 0.187528 8.32584 0.187529 8.80966 0.535071C10.4631 1.72281 12.4723 3.64286 13.5685 5.35837C14.0825 6.16276 13.5503 7.22432 12.5983 7.29372L11.1087 7.4023C11.0244 7.40845 10.9401 7.41434 10.8558 7.41999C10.9256 9.03529 10.8899 10.6538 10.7486 12.265C10.6811 13.0357 10.0358 13.6269 9.26215 13.6269H6.73788ZM6.68148 6.7622C6.56777 8.54942 6.589 10.3428 6.74504 12.1269H9.25499C9.41103 10.3427 9.43226 8.54942 9.31855 6.7622C9.3058 6.56183 9.37392 6.36471 9.50766 6.21497C9.64141 6.06523 9.8296 5.97536 10.0301 5.96548C10.3535 5.94955 10.6767 5.92982 10.9997 5.90627L12.0815 5.82742C11.1219 4.41412 9.92042 3.17987 8.5313 2.18201L8.00002 1.80037L7.46873 2.18201C6.07962 3.17987 4.87813 4.41412 3.91858 5.82742L5.00038 5.90627C5.32337 5.92982 5.64656 5.94955 5.9699 5.96548C6.17043 5.97536 6.35863 6.06523 6.49237 6.21497C6.62611 6.36471 6.69423 6.56183 6.68148 6.7622Z" fill="black" fill-opacity="0.5"/>
<path d="M1.75 13.9997C1.75 13.5855 1.41421 13.2497 1 13.2497C0.585786 13.2497 0.25 13.5855 0.25 13.9997V15.9997C0.25 16.9662 1.0335 17.7497 2 17.7497H14C14.9665 17.7497 15.75 16.9662 15.75 15.9997V13.9997C15.75 13.5855 15.4142 13.2497 15 13.2497C14.5858 13.2497 14.25 13.5855 14.25 13.9997V15.9997C14.25 16.1377 14.1381 16.2497 14 16.2497H2C1.86193 16.2497 1.75 16.1377 1.75 15.9997V13.9997Z" fill="black" fill-opacity="0.5"/>
</svg>
