<svg width="24" height="24" viewBox="0 0 24 24" fill="none" xmlns="http://www.w3.org/2000/svg">
<circle cx="12" cy="12" r="9" stroke="black" stroke-width="2" stroke-linecap="round" stroke-linejoin="round"/>
<path d="M13.0002 3.04807C12.6522 3.34096 12.3387 3.68661 12.0719 4.08261C10.5291 6.37287 11.135 9.48016 13.4253 11.023C13.6061 11.1447 13.792 11.2531 13.9818 11.3484C16.0002 12.3612 16.7708 10.9961 17.8637 11.7323C18.5725 12.2098 18.7601 13.1716 18.2826 13.8805C17.7821 14.6234 17.0002 15 17.1355 16.2168C17.2118 16.9035 17.6338 17.4953 18.1805 18" stroke="black" stroke-width="2" stroke-linecap="round" stroke-linejoin="round"/>
<path d="M4 9.28006C5.08188 9.54334 6.083 10.1678 6.80601 11.126C7.57668 12.1473 7.89615 13.3684 7.79785 14.5504C7.74578 15.1764 8.15405 15.8083 8.6794 16.1527C8.93324 16.3191 9.16323 16.5313 9.35655 16.7874C10.2126 17.9218 10.0418 19.5111 9 20.4407" stroke="black" stroke-width="2" stroke-linecap="round" stroke-linejoin="round"/>
</svg>
