<svg width="20" height="20" viewBox="0 0 20 20" fill="none" xmlns="http://www.w3.org/2000/svg">
<path d="M19.9978 3.36818C19.9976 2.4816 19.6452 1.63141 19.0184 1.00452C18.3914 0.37761 17.5413 0.0253082 16.6547 0.0250601C15.0331 0.00860927 13.6936 1.16716 13.3613 2.68949H13.2787C13.1245 1.93577 12.7152 1.25823 12.1199 0.771036C11.5244 0.283842 10.7792 0.0167783 10.0099 0.0148471C9.24059 0.0129149 8.49411 0.276233 7.89626 0.76043C7.29841 1.24462 6.88574 1.9201 6.72778 2.67305H6.64507C6.52203 2.07892 6.24008 1.52932 5.82929 1.08281C5.41849 0.636296 4.89424 0.309619 4.3124 0.137594C3.73058 -0.034432 3.11296 -0.0453589 2.52541 0.105976C1.93785 0.257311 1.40238 0.565238 0.97604 0.996935C0.549707 1.42863 0.2485 1.96792 0.104522 2.55732C-0.0394551 3.14673 -0.0208065 3.76415 0.15848 4.34379C0.337768 4.92342 0.670974 5.44355 1.12258 5.84873C1.5742 6.25392 2.12728 6.52896 2.7229 6.64456V6.71083C1.95886 6.85983 1.27039 7.26985 0.775433 7.87066C0.280471 8.47148 0.00981002 9.2257 0.00981002 10.0041C0.00981002 10.7826 0.280471 11.5368 0.775433 12.1375C1.27039 12.7384 1.95886 13.1485 2.7229 13.2975V13.3632C2.12668 13.4765 1.57246 13.7497 1.11953 14.1536C0.666603 14.5576 0.331994 15.0771 0.151496 15.6565C-0.029003 16.2359 -0.0486018 16.8535 0.0947954 17.4432C0.238193 18.0329 0.539192 18.5726 0.9656 19.0044C1.392 19.4363 1.92778 19.7441 2.51563 19.8949C3.10346 20.0458 3.72126 20.034 4.30293 19.8609C4.88459 19.6877 5.40826 19.3597 5.8179 18.912C6.22755 18.4642 6.50778 17.9135 6.62861 17.3188H6.71134C7.02577 18.841 8.38266 19.9978 9.98818 19.9978C10.7605 20.0013 11.5099 19.7359 12.1078 19.247C12.7056 18.7581 13.1146 18.0764 13.2646 17.3188H13.3472C13.6617 18.841 15.0186 19.9978 16.6241 19.9978C17.4562 19.9958 18.2578 19.6841 18.8726 19.1235C19.4875 18.5628 19.8716 17.7934 19.9501 16.965C20.0286 16.1365 19.7959 15.3086 19.2972 14.6424C18.7986 13.9763 18.07 13.5196 17.2529 13.3613V13.2956C18.0171 13.1465 18.7055 12.7365 19.2004 12.1357C19.6954 11.5349 19.9661 10.7807 19.9661 10.0022C19.9661 9.22381 19.6954 8.4696 19.2004 7.86879C18.7055 7.26797 18.0171 6.85795 17.2529 6.70895V6.64268C18.0226 6.507 18.7198 6.10428 19.2218 5.50536C19.7238 4.90644 19.9986 4.14968 19.9978 3.36818ZM15.3805 14.6045C15.3807 14.7067 15.3607 14.808 15.3217 14.9024C15.2827 14.9968 15.2254 15.0827 15.1531 15.155C15.0809 15.2273 14.995 15.2845 14.9005 15.3235C14.8061 15.3625 14.7049 15.3826 14.6027 15.3824H5.41836C5.31616 15.3826 5.21493 15.3625 5.12047 15.3235C5.02601 15.2845 4.94019 15.2273 4.86792 15.155C4.79565 15.0827 4.73836 14.9968 4.69934 14.9024C4.66031 14.808 4.64032 14.7067 4.6405 14.6045V5.42021C4.64032 5.318 4.66031 5.21677 4.69934 5.12231C4.73836 5.02786 4.79565 4.94204 4.86792 4.86977C4.94019 4.79749 5.02601 4.74021 5.12047 4.70119C5.21493 4.66216 5.31616 4.64217 5.41836 4.64235H14.6027C14.7049 4.64217 14.8061 4.66216 14.9005 4.70119C14.995 4.74021 15.0809 4.79749 15.1531 4.86977C15.2254 4.94204 15.2827 5.02786 15.3217 5.12231C15.3607 5.21677 15.3807 5.318 15.3805 5.42021V14.6045Z" fill="white"/>
</svg>
