<svg width="32" height="32" viewBox="0 0 32 32" fill="none" xmlns="http://www.w3.org/2000/svg">
<g clip-path="url(#clip0_294_5473)">
<path d="M25 19L20 24L12 22L5 17" stroke="#212121" stroke-width="2" stroke-linecap="round" stroke-linejoin="round"/>
<path d="M9.08496 8.82875L16 7L22.915 8.82875" stroke="#212121" stroke-width="2" stroke-linecap="round" stroke-linejoin="round"/>
<path d="M4.29659 7.55236L1.10659 13.9349C0.988033 14.1719 0.968442 14.4463 1.05212 14.6978C1.13579 14.9493 1.31589 15.1573 1.55284 15.2761L5.00034 16.9999L9.08534 8.82861L5.63909 7.10611C5.52165 7.04721 5.39375 7.01204 5.26271 7.00259C5.13166 6.99314 5.00004 7.00961 4.87537 7.05105C4.75069 7.09249 4.63541 7.1581 4.5361 7.24412C4.43679 7.33013 4.3554 7.43488 4.29659 7.55236Z" stroke="#212121" stroke-width="2" stroke-linecap="round" stroke-linejoin="round"/>
<path d="M27 16.9999L30.4475 15.2761C30.6845 15.1573 30.8646 14.9493 30.9483 14.6978C31.0319 14.4463 31.0123 14.1719 30.8938 13.9349L27.7038 7.55236C27.645 7.43488 27.5636 7.33013 27.4643 7.24412C27.365 7.1581 27.2497 7.09249 27.125 7.05105C27.0003 7.00961 26.8687 6.99314 26.7377 7.00259C26.6066 7.01204 26.4787 7.04721 26.3613 7.10611L22.915 8.82861L27 16.9999Z" stroke="#212121" stroke-width="2" stroke-linecap="round" stroke-linejoin="round"/>
<path d="M22.9996 9H17.9996L12.2921 14.5363C12.186 14.6423 12.1051 14.7709 12.0554 14.9124C12.0058 15.054 11.9886 15.2049 12.0051 15.354C12.0217 15.5031 12.0716 15.6465 12.1511 15.7737C12.2307 15.9009 12.3378 16.0086 12.4646 16.0888C14.6533 17.4875 17.6246 17.3912 19.9996 15L24.9996 19L26.9996 17" stroke="#212121" stroke-width="2" stroke-linecap="round" stroke-linejoin="round"/>
<path d="M15.5075 27L10.2925 25.6963L7 23.3438" stroke="#212121" stroke-width="2" stroke-linecap="round" stroke-linejoin="round"/>
</g>
<defs>
<clipPath id="clip0_294_5473">
<rect width="32" height="32" fill="white"/>
</clipPath>
</defs>
</svg>
