<svg width="33" height="33" viewBox="0 0 33 33" fill="none" xmlns="http://www.w3.org/2000/svg">
<g clip-path="url(#clip0_247_695)">
<path d="M16.5 33C25.6127 33 33 25.6127 33 16.5C33 7.3873 25.6127 0 16.5 0C7.3873 0 0 7.3873 0 16.5C0 25.6127 7.3873 33 16.5 33Z" fill="black" fill-opacity="0.5"/>
<path fill-rule="evenodd" clip-rule="evenodd" d="M7.46884 16.3259C12.2789 14.2303 15.4864 12.8487 17.0913 12.1811C21.6735 10.2752 22.6256 9.94415 23.2462 9.93322C23.3827 9.93082 23.6879 9.96464 23.8856 10.1251C24.0525 10.2605 24.0985 10.4435 24.1204 10.5719C24.1424 10.7003 24.1698 10.9929 24.148 11.2214C23.8997 13.8305 22.8253 20.1619 22.2787 23.0841C22.0474 24.3206 21.5919 24.7352 21.151 24.7757C20.1929 24.8639 19.4653 24.1425 18.5372 23.5341C17.085 22.5822 16.2646 21.9896 14.855 21.0607C13.2259 19.9872 14.2819 19.3971 15.2103 18.4329C15.4533 18.1805 19.6751 14.3405 19.7568 13.9921C19.767 13.9485 19.7765 13.7861 19.68 13.7004C19.5836 13.6146 19.4412 13.644 19.3384 13.6673C19.1928 13.7003 16.8728 15.2337 12.3786 18.2674C11.7201 18.7196 11.1237 18.9399 10.5893 18.9284C10.0001 18.9157 8.86686 18.5953 8.0244 18.3214C6.99108 17.9856 6.16983 17.808 6.24134 17.2375C6.27859 16.9404 6.68775 16.6365 7.46884 16.3259Z" fill="white"/>
</g>
<defs>
<clipPath id="clip0_247_695">
<rect width="33" height="33" fill="white"/>
</clipPath>
</defs>
</svg>
