<svg width="19" height="24" viewBox="0 0 19 24" fill="none" xmlns="http://www.w3.org/2000/svg">
<path fill-rule="evenodd" clip-rule="evenodd" d="M9.16364 0C14.2246 0 18.3273 4.1027 18.3273 9.16364C18.3273 9.78139 18.2661 10.3849 18.1496 10.9683C17.3408 17.0632 9.21179 24 9.21179 24C9.21179 24 2.29392 18.0967 0.586717 12.3969C0.207494 11.3915 0 10.3018 0 9.16364C0 4.1027 4.1027 0 9.16364 0Z" fill="black"/>
<path d="M12.6547 9.16352C12.6547 7.23554 11.0917 5.67261 9.16376 5.67261C7.23578 5.67261 5.67285 7.23554 5.67285 9.16352C5.67285 11.0915 7.23578 12.6544 9.16376 12.6544C11.0917 12.6544 12.6547 11.0915 12.6547 9.16352Z" fill="#FAFAFA"/>
</svg>
