<svg width="35" height="33" viewBox="0 0 35 33" fill="none" xmlns="http://www.w3.org/2000/svg">
<path d="M32.8657 0.0664062L19.3857 10.0664L21.8924 4.17307L32.8657 0.0664062Z" fill="#E17726" stroke="#E17726" stroke-width="0.133333" stroke-linecap="round" stroke-linejoin="round"/>
<path d="M1.77344 0.0664062L15.1334 10.1597L12.7468 4.17307L1.77344 0.0664062Z" fill="#E27625" stroke="#E27625" stroke-width="0.133333" stroke-linecap="round" stroke-linejoin="round"/>
<path d="M28.0134 23.2529L24.4268 28.7463L32.1068 30.8663L34.3068 23.3729L28.0134 23.2529Z" fill="#E27625" stroke="#E27625" stroke-width="0.133333" stroke-linecap="round" stroke-linejoin="round"/>
<path d="M0.34668 23.3729L2.53335 30.8663L10.2 28.7463L6.62668 23.2529L0.34668 23.3729Z" fill="#E27625" stroke="#E27625" stroke-width="0.133333" stroke-linecap="round" stroke-linejoin="round"/>
<path d="M9.78665 13.9733L7.65332 17.2L15.2533 17.5467L15 9.34668L9.78665 13.9733Z" fill="#E27625" stroke="#E27625" stroke-width="0.133333" stroke-linecap="round" stroke-linejoin="round"/>
<path d="M24.8534 13.9729L19.5601 9.25293L19.3867 17.5463L26.9867 17.1996L24.8534 13.9729Z" fill="#E27625" stroke="#E27625" stroke-width="0.133333" stroke-linecap="round" stroke-linejoin="round"/>
<path d="M10.2002 28.7468L14.8002 26.5201L10.8402 23.4268L10.2002 28.7468Z" fill="#E27625" stroke="#E27625" stroke-width="0.133333" stroke-linecap="round" stroke-linejoin="round"/>
<path d="M19.8398 26.5201L24.4265 28.7468L23.7998 23.4268L19.8398 26.5201Z" fill="#E27625" stroke="#E27625" stroke-width="0.133333" stroke-linecap="round" stroke-linejoin="round"/>
<path d="M24.4265 28.7462L19.8398 26.5195L20.2132 29.5062L20.1732 30.7729L24.4265 28.7462Z" fill="#D5BFB2" stroke="#D5BFB2" stroke-width="0.133333" stroke-linecap="round" stroke-linejoin="round"/>
<path d="M10.2002 28.7462L14.4669 30.7729L14.4402 29.5062L14.8002 26.5195L10.2002 28.7462Z" fill="#D5BFB2" stroke="#D5BFB2" stroke-width="0.133333" stroke-linecap="round" stroke-linejoin="round"/>
<path d="M14.5458 21.4528L10.7324 20.3328L13.4258 19.0928L14.5458 21.4528Z" fill="#233447" stroke="#233447" stroke-width="0.133333" stroke-linecap="round" stroke-linejoin="round"/>
<path d="M20.0928 21.4528L21.2128 19.0928L23.9194 20.3328L20.0928 21.4528Z" fill="#233447" stroke="#233447" stroke-width="0.133333" stroke-linecap="round" stroke-linejoin="round"/>
<path d="M10.1993 28.7453L10.866 23.252L6.62598 23.372L10.1993 28.7453Z" fill="#CC6228" stroke="#CC6228" stroke-width="0.133333" stroke-linecap="round" stroke-linejoin="round"/>
<path d="M23.7734 23.252L24.4268 28.7453L28.0134 23.372L23.7734 23.252Z" fill="#CC6228" stroke="#CC6228" stroke-width="0.133333" stroke-linecap="round" stroke-linejoin="round"/>
<path d="M26.9867 17.1992L19.3867 17.5459L20.0934 21.4526L21.2134 19.0926L23.9201 20.3326L26.9867 17.1992Z" fill="#CC6228" stroke="#CC6228" stroke-width="0.133333" stroke-linecap="round" stroke-linejoin="round"/>
<path d="M10.7333 20.3326L13.4267 19.0926L14.5467 21.4526L15.2533 17.5459L7.65332 17.1992L10.7333 20.3326Z" fill="#CC6228" stroke="#CC6228" stroke-width="0.133333" stroke-linecap="round" stroke-linejoin="round"/>
<path d="M7.65332 17.1992L10.84 23.4259L10.7333 20.3326L7.65332 17.1992Z" fill="#E27525" stroke="#E27525" stroke-width="0.133333" stroke-linecap="round" stroke-linejoin="round"/>
<path d="M23.9198 20.3326L23.7998 23.4259L26.9865 17.1992L23.9198 20.3326Z" fill="#E27525" stroke="#E27525" stroke-width="0.133333" stroke-linecap="round" stroke-linejoin="round"/>
<path d="M15.2535 17.5459L14.5469 21.4526L15.4402 26.0659L15.6402 19.9859L15.2535 17.5459Z" fill="#E27525" stroke="#E27525" stroke-width="0.133333" stroke-linecap="round" stroke-linejoin="round"/>
<path d="M19.387 17.5459L19.0137 19.9726L19.2003 26.0659L20.0937 21.4526L19.387 17.5459Z" fill="#E27525" stroke="#E27525" stroke-width="0.133333" stroke-linecap="round" stroke-linejoin="round"/>
<path d="M20.0935 21.453L19.2002 26.0663L19.8402 26.5197L23.8002 23.4263L23.9202 20.333L20.0935 21.453Z" fill="#F5841F" stroke="#F5841F" stroke-width="0.133333" stroke-linecap="round" stroke-linejoin="round"/>
<path d="M10.7324 20.333L10.8391 23.4263L14.7991 26.5197L15.4391 26.0663L14.5458 21.453L10.7324 20.333Z" fill="#F5841F" stroke="#F5841F" stroke-width="0.133333" stroke-linecap="round" stroke-linejoin="round"/>
<path d="M20.1735 30.7728L20.2135 29.5061L19.8669 29.2128H14.7735L14.4402 29.5061L14.4669 30.7728L10.2002 28.7461L11.6935 29.9728L14.7202 32.0661H19.9069L22.9469 29.9728L24.4269 28.7461L20.1735 30.7728Z" fill="#C0AC9D" stroke="#C0AC9D" stroke-width="0.133333" stroke-linecap="round" stroke-linejoin="round"/>
<path d="M19.8404 26.5197L19.2004 26.0664H15.4404L14.8004 26.5197L14.4404 29.5064L14.7738 29.2131H19.8671L20.2138 29.5064L19.8404 26.5197Z" fill="#161616" stroke="#161616" stroke-width="0.133333" stroke-linecap="round" stroke-linejoin="round"/>
<path d="M33.4389 10.7197L34.5722 5.19974L32.8655 0.0664062L19.8389 9.73308L24.8522 13.9731L31.9322 16.0397L33.4922 14.2131L32.8122 13.7197L33.8922 12.7331L33.0655 12.0931L34.1455 11.2664L33.4389 10.7197Z" fill="#763E1A" stroke="#763E1A" stroke-width="0.133333" stroke-linecap="round" stroke-linejoin="round"/>
<path d="M0.0664062 5.19974L1.21307 10.7197L0.47974 11.2664L1.57307 12.0931L0.746406 12.7331L1.82641 13.7197L1.14641 14.2131L2.70641 16.0397L9.78641 13.9731L14.7997 9.73308L1.77307 0.0664062L0.0664062 5.19974Z" fill="#763E1A" stroke="#763E1A" stroke-width="0.133333" stroke-linecap="round" stroke-linejoin="round"/>
<path d="M31.9331 16.0393L24.8531 13.9727L26.9865 17.1993L23.7998 23.426L28.0131 23.3727H34.3065L31.9331 16.0393Z" fill="#F5841F" stroke="#F5841F" stroke-width="0.133333" stroke-linecap="round" stroke-linejoin="round"/>
<path d="M9.78668 13.9727L2.70668 16.0393L0.34668 23.3727H6.62668L10.84 23.426L7.65335 17.1993L9.78668 13.9727Z" fill="#F5841F" stroke="#F5841F" stroke-width="0.133333" stroke-linecap="round" stroke-linejoin="round"/>
<path d="M19.3861 17.5462L19.8394 9.73285L21.8928 4.17285H12.7461L14.7994 9.73285L15.2528 17.5462L15.4261 19.9995L15.4394 26.0662H19.1994L19.2128 19.9995L19.3861 17.5462Z" fill="#F5841F" stroke="#F5841F" stroke-width="0.133333" stroke-linecap="round" stroke-linejoin="round"/>
</svg>
