<svg width="17" height="20" viewBox="0 0 17 20" fill="none" xmlns="http://www.w3.org/2000/svg">
<path d="M11.4547 15.381V16.2857C11.4547 17.7848 10.2337 19 8.7274 19C7.22115 19 6.00009 17.7848 6.00009 16.2857V15.381M11.4547 15.381H6.00009M11.4547 15.381H14.7189C15.0666 15.381 15.2413 15.381 15.3821 15.3337C15.6511 15.2434 15.8616 15.0332 15.9523 14.7655C16 14.6248 16 14.4504 16 14.1016C16 13.9489 15.9998 13.8726 15.9878 13.7998C15.9651 13.6623 15.9115 13.5319 15.8298 13.4187C15.7867 13.3589 15.7318 13.3043 15.6237 13.1967L15.2696 12.8443C15.1553 12.7306 15.0911 12.5763 15.0911 12.4155V9.04763C15.0911 5.54982 12.242 2.71429 8.7274 2.71429C5.21281 2.7143 2.36366 5.54983 2.36366 9.04763V12.4155C2.36366 12.5764 2.29934 12.7306 2.18509 12.8443L1.83099 13.1967C1.72253 13.3046 1.66824 13.3589 1.62502 13.4188C1.54334 13.532 1.48924 13.6623 1.46656 13.7998C1.45456 13.8726 1.45456 13.9489 1.45456 14.1016C1.45456 14.4504 1.45456 14.6248 1.50224 14.7655C1.59297 15.0332 1.80438 15.2434 2.07335 15.3337C2.21417 15.381 2.38822 15.381 2.73599 15.381H6.00009" stroke="black" stroke-width="2" stroke-linecap="round" stroke-linejoin="round"/>
</svg>
