<svg width="13" height="15" viewBox="0 0 13 15" fill="none" xmlns="http://www.w3.org/2000/svg">
<path d="M8.44031 11.3333V12C8.44031 13.1046 7.54059 14 6.43071 14C5.32084 14 4.42111 13.1046 4.42111 12V11.3333M8.44031 11.3333H4.42111M8.44031 11.3333H10.8455C11.1017 11.3333 11.2304 11.3333 11.3342 11.2985C11.5324 11.232 11.6875 11.0771 11.7543 10.8799C11.7895 10.7762 11.7895 10.6477 11.7895 10.3906C11.7895 10.2782 11.7893 10.2219 11.7805 10.1683C11.7638 10.067 11.7243 9.97089 11.6641 9.88748C11.6323 9.84341 11.5919 9.80318 11.5122 9.72389L11.2513 9.46419C11.1671 9.38041 11.1198 9.26676 11.1198 9.14827V6.66667C11.1198 4.08933 9.02042 1.99999 6.43071 2C3.84102 2.00001 1.74164 4.08934 1.74164 6.66667V9.14829C1.74164 9.26678 1.69425 9.38041 1.61006 9.46419L1.34914 9.72386C1.26923 9.8034 1.22922 9.84336 1.19738 9.8875C1.13719 9.97092 1.09733 10.067 1.08062 10.1683C1.07178 10.2219 1.07178 10.2782 1.07178 10.3906C1.07178 10.6477 1.07178 10.7762 1.10691 10.8798C1.17376 11.0771 1.32954 11.232 1.52773 11.2985C1.63149 11.3333 1.75974 11.3333 2.01599 11.3333H4.42111" stroke="#707070" stroke-width="1.47368" stroke-linecap="round" stroke-linejoin="round"/>
</svg>
