<svg width="32" height="32" viewBox="0 0 32 32" fill="none" xmlns="http://www.w3.org/2000/svg">
<path d="M3.78035 29.2707C7.85721 29.2707 10.921 25.7252 12.7494 22.9235C12.5271 23.5434 12.4035 24.1632 12.4035 24.7582C12.4035 26.3946 13.3424 27.5599 15.1955 27.5599C17.7405 27.5599 20.4584 25.3285 21.8667 22.9235C21.7679 23.2706 21.7185 23.5929 21.7185 23.8904C21.7185 25.0309 22.3609 25.75 23.6705 25.75C27.7967 25.75 31.9477 18.4358 31.9477 12.0391C31.9477 7.05549 29.4274 2.66699 23.1022 2.66699C11.9835 2.66699 0 16.254 0 25.0309C0 28.4773 1.85311 29.2707 3.78035 29.2707ZM19.2724 11.4936C19.2724 10.2539 19.9642 9.38613 20.9772 9.38613C21.9655 9.38613 22.6574 10.2539 22.6574 11.4936C22.6574 12.7333 21.9655 13.6258 20.9772 13.6258C19.9642 13.6258 19.2724 12.7333 19.2724 11.4936ZM24.5599 11.4936C24.5599 10.2539 25.2518 9.38613 26.2648 9.38613C27.2531 9.38613 27.945 10.2539 27.945 11.4936C27.945 12.7333 27.2531 13.6258 26.2648 13.6258C25.2518 13.6258 24.5599 12.7333 24.5599 11.4936Z" fill="#AB9FF2"/>
</svg>
