<svg width="10" height="10" viewBox="0 0 10 10" fill="none" xmlns="http://www.w3.org/2000/svg">
<path d="M6.405 4.89524C6.72149 4.57154 6.89978 4.14704 6.905 3.70476C6.905 3.22737 6.70588 2.76954 6.35143 2.43197C5.99699 2.0944 5.51626 1.90476 5.015 1.90476C4.51374 1.90476 4.03301 2.0944 3.67857 2.43197C3.32412 2.76954 3.125 3.22737 3.125 3.70476C3.13022 4.14704 3.30851 4.57154 3.625 4.89524C3.18433 5.10422 2.80511 5.41426 2.52146 5.79745C2.23781 6.18064 2.05861 6.62497 2 7.09048C1.98541 7.21677 2.0241 7.34341 2.10756 7.44254C2.19101 7.54166 2.31239 7.60516 2.445 7.61905C2.57761 7.63294 2.71058 7.59609 2.81466 7.51661C2.91875 7.43713 2.98541 7.32153 3 7.19524C3.05967 6.73388 3.29442 6.30922 3.66004 6.00126C4.02566 5.69331 4.49691 5.52332 4.985 5.52332C5.47309 5.52332 5.94434 5.69331 6.30996 6.00126C6.67558 6.30922 6.91033 6.73388 6.97 7.19524C6.98391 7.31734 7.04681 7.4296 7.14557 7.50858C7.24434 7.58755 7.37132 7.62713 7.5 7.61905H7.555C7.68607 7.60468 7.80586 7.54157 7.88828 7.44345C7.9707 7.34534 8.00906 7.22017 7.995 7.09524C7.94073 6.63218 7.76719 6.18906 7.48981 5.80526C7.21242 5.42146 6.83978 5.10886 6.405 4.89524ZM5 4.55238C4.82397 4.55238 4.6519 4.50267 4.50554 4.40953C4.35918 4.31639 4.24511 4.18401 4.17775 4.02913C4.11039 3.87425 4.09276 3.70382 4.1271 3.5394C4.16144 3.37498 4.24621 3.22395 4.37068 3.1054C4.49514 2.98686 4.65373 2.90614 4.82637 2.87343C4.99901 2.84072 5.17796 2.85751 5.34059 2.92166C5.50321 2.98582 5.64221 3.09446 5.74001 3.23385C5.8378 3.37324 5.89 3.53712 5.89 3.70476C5.89 3.92956 5.79623 4.14516 5.62932 4.30412C5.46242 4.46308 5.23604 4.55238 5 4.55238ZM8.5 0H1.5C1.10218 0 0.720644 0.15051 0.43934 0.418419C0.158035 0.686328 0 1.04969 0 1.42857V8.09524C0 8.47412 0.158035 8.83748 0.43934 9.10539C0.720644 9.3733 1.10218 9.52381 1.5 9.52381H8.5C8.89782 9.52381 9.27936 9.3733 9.56066 9.10539C9.84196 8.83748 10 8.47412 10 8.09524V1.42857C10 1.04969 9.84196 0.686328 9.56066 0.418419C9.27936 0.15051 8.89782 0 8.5 0ZM9 8.09524C9 8.22153 8.94732 8.34265 8.85355 8.43196C8.75979 8.52126 8.63261 8.57143 8.5 8.57143H1.5C1.36739 8.57143 1.24021 8.52126 1.14645 8.43196C1.05268 8.34265 1 8.22153 1 8.09524V1.42857C1 1.30228 1.05268 1.18116 1.14645 1.09185C1.24021 1.00255 1.36739 0.952381 1.5 0.952381H8.5C8.63261 0.952381 8.75979 1.00255 8.85355 1.09185C8.94732 1.18116 9 1.30228 9 1.42857V8.09524Z" fill="white"/>
</svg>
