<svg width="16" height="16" viewBox="0 0 16 16" fill="none" xmlns="http://www.w3.org/2000/svg">
<path d="M9.33334 3.52659H8.58334C8.58334 3.8584 8.80138 4.15078 9.11941 4.24543L9.33334 3.52659ZM10.2201 3.89424L9.86281 4.55366C10.1547 4.7118 10.5157 4.65929 10.7505 4.42457L10.2201 3.89424ZM10.5927 3.52164L11.1231 4.05197L11.1231 4.05197L10.5927 3.52164ZM12.0069 3.52164L11.4766 4.05197L11.4766 4.05197L12.0069 3.52164ZM12.4783 3.99305L11.948 4.52338V4.52338L12.4783 3.99305ZM12.4783 5.40726L13.0087 5.93759L13.0087 5.93759L12.4783 5.40726ZM12.1058 5.77986L11.5754 5.24953C11.3407 5.48424 11.2882 5.84533 11.4463 6.13718L12.1058 5.77986ZM12.4734 6.66667L11.7546 6.8806C11.8492 7.19863 12.1416 7.41667 12.4734 7.41667V6.66667ZM12.4734 9.33333V8.58333C12.1416 8.58333 11.8492 8.80137 11.7546 9.1194L12.4734 9.33333ZM12.1058 10.2201L11.4463 9.86282C11.2882 10.1547 11.3407 10.5158 11.5754 10.7505L12.1058 10.2201ZM10.2201 12.1058L10.7505 11.5754C10.5157 11.3407 10.1547 11.2882 9.86281 11.4463L10.2201 12.1058ZM9.33334 12.4734L9.11941 11.7546C8.80138 11.8492 8.58334 12.1416 8.58334 12.4734H9.33334ZM6.66668 12.4734H7.41668C7.41668 12.1416 7.19864 11.8492 6.88061 11.7546L6.66668 12.4734ZM5.77987 12.1057L6.13719 11.4463C5.84534 11.2882 5.48425 11.3407 5.24954 11.5754L5.77987 12.1057ZM5.40728 12.4783L5.93761 13.0087H5.93761L5.40728 12.4783ZM3.99306 12.4783L4.5234 11.948H4.52339L3.99306 12.4783ZM3.52166 12.0069L4.05199 11.4766L4.05199 11.4766L3.52166 12.0069ZM3.52166 10.5927L4.05199 11.123H4.05199L3.52166 10.5927ZM3.89425 10.2201L4.42458 10.7504C4.6593 10.5157 4.71181 10.1546 4.55367 9.8628L3.89425 10.2201ZM3.5266 9.33333L4.24544 9.1194C4.15079 8.80137 3.85841 8.58333 3.5266 8.58333V9.33333ZM3.5266 6.66667V7.41667C3.85841 7.41667 4.15079 7.19863 4.24544 6.8806L3.5266 6.66667ZM3.89426 5.77988L4.55367 6.1372C4.71181 5.84535 4.6593 5.48427 4.42459 5.24955L3.89426 5.77988ZM3.52166 5.40729L2.99133 5.93762L2.99133 5.93762L3.52166 5.40729ZM3.52166 3.99308L4.05199 4.52341L3.52166 3.99308ZM5.40728 3.52167L4.87695 4.052V4.052L5.40728 3.52167ZM5.77987 3.89426L5.24954 4.42459C5.48426 4.65931 5.84534 4.71181 6.13719 4.55367L5.77987 3.89426ZM6.66668 3.52659L6.88061 4.24543C7.19864 4.15078 7.41668 3.8584 7.41668 3.52659H6.66668ZM7.66668 1.25C6.70018 1.25 5.91668 2.0335 5.91668 3H7.41668C7.41668 2.86193 7.52861 2.75 7.66668 2.75V1.25ZM8.33334 1.25H7.66668V2.75H8.33334V1.25ZM10.0833 3C10.0833 2.0335 9.29984 1.25 8.33334 1.25V2.75C8.47142 2.75 8.58334 2.86193 8.58334 3H10.0833ZM10.0833 3.52659V3H8.58334V3.52659H10.0833ZM10.5774 3.23483C10.2528 3.05891 9.90795 2.91509 9.54728 2.80775L9.11941 4.24543C9.37944 4.32282 9.62826 4.42656 9.86281 4.55366L10.5774 3.23483ZM10.0624 2.99131L9.6898 3.36391L10.7505 4.42457L11.1231 4.05197L10.0624 2.99131ZM12.5373 2.99131C11.8539 2.30789 10.7458 2.30789 10.0624 2.99131L11.1231 4.05197C11.2207 3.95434 11.379 3.95434 11.4766 4.05197L12.5373 2.99131ZM13.0087 3.46272L12.5373 2.99131L11.4766 4.05197L11.948 4.52338L13.0087 3.46272ZM13.0087 5.93759C13.6921 5.25417 13.6921 4.14613 13.0087 3.46271L11.948 4.52338C12.0456 4.62101 12.0456 4.7793 11.948 4.87693L13.0087 5.93759ZM12.6361 6.31019L13.0087 5.93759L11.948 4.87693L11.5754 5.24953L12.6361 6.31019ZM13.1923 6.45273C13.0849 6.09205 12.9411 5.74721 12.7652 5.42253L11.4463 6.13718C11.5734 6.37173 11.6772 6.62056 11.7546 6.8806L13.1923 6.45273ZM12.4734 7.41667H13V5.91667H12.4734V7.41667ZM13 7.41667C13.1381 7.41667 13.25 7.5286 13.25 7.66667H14.75C14.75 6.70017 13.9665 5.91667 13 5.91667V7.41667ZM13.25 7.66667V8.33333H14.75V7.66667H13.25ZM13.25 8.33333C13.25 8.4714 13.1381 8.58333 13 8.58333V10.0833C13.9665 10.0833 14.75 9.29983 14.75 8.33333H13.25ZM13 8.58333H12.4734V10.0833H13V8.58333ZM12.7652 10.5775C12.9411 10.2528 13.0849 9.90795 13.1923 9.54727L11.7546 9.1194C11.6772 9.37944 11.5734 9.62827 11.4463 9.86282L12.7652 10.5775ZM13.0087 10.0624L12.6361 9.68981L11.5754 10.7505L11.948 11.1231L13.0087 10.0624ZM13.0087 12.5373C13.6921 11.8539 13.6921 10.7458 13.0087 10.0624L11.948 11.1231C12.0456 11.2207 12.0456 11.379 11.948 11.4766L13.0087 12.5373ZM12.5373 13.0087L13.0087 12.5373L11.948 11.4766L11.4766 11.948L12.5373 13.0087ZM10.0624 13.0087C10.7458 13.6921 11.8539 13.6921 12.5373 13.0087L11.4766 11.948C11.379 12.0457 11.2207 12.0457 11.1231 11.948L10.0624 13.0087ZM9.6898 12.6361L10.0624 13.0087L11.1231 11.948L10.7505 11.5754L9.6898 12.6361ZM9.54728 13.1923C9.90795 13.0849 10.2528 12.9411 10.5774 12.7652L9.86281 11.4463C9.62826 11.5734 9.37944 11.6772 9.11941 11.7546L9.54728 13.1923ZM10.0833 13V12.4734H8.58334V13H10.0833ZM8.33334 14.75C9.29984 14.75 10.0833 13.9665 10.0833 13H8.58334C8.58334 13.1381 8.47142 13.25 8.33334 13.25V14.75ZM7.66668 14.75H8.33334V13.25H7.66668V14.75ZM5.91668 13C5.91668 13.9665 6.70018 14.75 7.66668 14.75V13.25C7.52861 13.25 7.41668 13.1381 7.41668 13H5.91668ZM5.91668 12.4734V13H7.41668V12.4734H5.91668ZM5.42254 12.7651C5.74722 12.9411 6.09206 13.0849 6.45274 13.1923L6.88061 11.7546C6.62057 11.6772 6.37174 11.5734 6.13719 11.4463L5.42254 12.7651ZM5.93761 13.0087L6.3102 12.6361L5.24954 11.5754L4.87695 11.948L5.93761 13.0087ZM3.46273 13.0087C4.14615 13.6921 5.25419 13.6921 5.93761 13.0087L4.87695 11.948C4.77932 12.0456 4.62103 12.0456 4.5234 11.948L3.46273 13.0087ZM2.99133 12.5373L3.46273 13.0087L4.52339 11.948L4.05199 11.4766L2.99133 12.5373ZM2.99133 10.0624C2.30791 10.7458 2.30791 11.8538 2.99133 12.5373L4.05199 11.4766C3.95436 11.379 3.95436 11.2207 4.05199 11.123L2.99133 10.0624ZM3.36392 9.68978L2.99133 10.0624L4.05199 11.123L4.42458 10.7504L3.36392 9.68978ZM2.80776 9.54727C2.9151 9.90794 3.05892 10.2528 3.23484 10.5774L4.55367 9.8628C4.42657 9.62825 4.32283 9.37943 4.24544 9.1194L2.80776 9.54727ZM3.5266 8.58333H3V10.0833H3.5266V8.58333ZM3 8.58333C2.86193 8.58333 2.75 8.4714 2.75 8.33333H1.25C1.25 9.29983 2.0335 10.0833 3 10.0833V8.58333ZM2.75 8.33333V7.66667H1.25V8.33333H2.75ZM2.75 7.66667C2.75 7.5286 2.86193 7.41667 3 7.41667V5.91667C2.0335 5.91667 1.25 6.70017 1.25 7.66667H2.75ZM3 7.41667H3.5266V5.91667H3V7.41667ZM3.23484 5.42256C3.05892 5.74723 2.9151 6.09206 2.80776 6.45273L4.24544 6.8806C4.32283 6.62057 4.42657 6.37175 4.55367 6.1372L3.23484 5.42256ZM2.99133 5.93762L3.36393 6.31021L4.42459 5.24955L4.05199 4.87696L2.99133 5.93762ZM2.99133 3.46275C2.30792 4.14616 2.30791 5.2542 2.99133 5.93762L4.05199 4.87696C3.95436 4.77933 3.95436 4.62104 4.05199 4.52341L2.99133 3.46275ZM3.46274 2.99134L2.99133 3.46275L4.05199 4.52341L4.5234 4.052L3.46274 2.99134ZM5.93761 2.99134C5.25419 2.30792 4.14615 2.30792 3.46274 2.99134L4.5234 4.052C4.62103 3.95437 4.77932 3.95437 4.87695 4.052L5.93761 2.99134ZM6.3102 3.36393L5.93761 2.99134L4.87695 4.052L5.24954 4.42459L6.3102 3.36393ZM6.45274 2.80775C6.09206 2.91509 5.74722 3.05892 5.42255 3.23485L6.13719 4.55367C6.37174 4.42657 6.62057 4.32282 6.88061 4.24543L6.45274 2.80775ZM5.91668 3V3.52659H7.41668V3H5.91668Z" fill="#707070"/>
<circle cx="8" cy="8" r="2" stroke="#707070" stroke-linecap="round" stroke-linejoin="round"/>
</svg>
