<svg width="20" height="20" viewBox="0 0 20 20" fill="none" xmlns="http://www.w3.org/2000/svg">
<path fill-rule="evenodd" clip-rule="evenodd" d="M10.0072 1.80566C5.39529 1.80566 1.66699 5.56145 1.66699 10.2079C1.66699 13.922 4.05584 17.0659 7.36981 18.1787C7.78414 18.2623 7.93591 17.9979 7.93591 17.7754C7.93591 17.5806 7.92225 16.913 7.92225 16.2173C5.6022 16.7182 5.11907 15.2157 5.11907 15.2157C4.74622 14.2419 4.19378 13.9916 4.19378 13.9916C3.43443 13.4769 4.24909 13.4769 4.24909 13.4769C5.09141 13.5326 5.5334 14.3394 5.5334 14.3394C6.27892 15.6191 7.48026 15.2575 7.96356 15.0349C8.03253 14.4924 8.25361 14.1168 8.48835 13.9082C6.63794 13.7134 4.69108 12.99 4.69108 9.76263C4.69108 8.84451 5.02227 8.09336 5.54706 7.50916C5.46426 7.30055 5.17421 6.43791 5.63003 5.28335C5.63003 5.28335 6.33424 5.06073 7.92208 6.14581C8.60189 5.96189 9.30297 5.86833 10.0072 5.86754C10.7114 5.86754 11.4293 5.96502 12.0922 6.14581C13.6802 5.06073 14.3844 5.28335 14.3844 5.28335C14.8402 6.43791 14.55 7.30055 14.4672 7.50916C15.0058 8.09336 15.3234 8.84451 15.3234 9.76263C15.3234 12.99 13.3765 13.6994 11.5123 13.9082C11.8161 14.1724 12.0784 14.6731 12.0784 15.4661C12.0784 16.5929 12.0647 17.4972 12.0647 17.7753C12.0647 17.9979 12.2166 18.2623 12.6308 18.1788C15.9448 17.0658 18.3336 13.922 18.3336 10.2079C18.3473 5.56145 14.6053 1.80566 10.0072 1.80566Z" fill="#737373"/>
</svg>
