<svg width="18" height="18" viewBox="0 0 18 18" fill="none" xmlns="http://www.w3.org/2000/svg">
<path d="M13 5C12.4477 5 12 5.44772 12 6C12 6.55228 12.4477 7 13 7V5ZM5 7C5.55228 7 6 6.55228 6 6C6 5.44772 5.55228 5 5 5V7ZM2.07805 16.7748L1.61708 17.6622L1.61708 17.6622L2.07805 16.7748ZM1.22517 15.9219L2.11259 15.461L2.11259 15.461L1.22517 15.9219ZM16.7748 15.9219L17.6622 16.3829L16.7748 15.9219ZM15.9219 16.7748L16.3829 17.6622L15.9219 16.7748ZM16.7748 7.07805L17.6622 6.61708L17.6622 6.61708L16.7748 7.07805ZM15.9219 6.22517L15.461 7.11259H15.461L15.9219 6.22517ZM1.22517 7.07805L0.33776 6.61708L1.22517 7.07805ZM2.07805 6.22517L1.61708 5.33776L2.07805 6.22517ZM8 11C8 11.5523 8.44772 12 9 12C9.55228 12 10 11.5523 10 11H8ZM9 1L9.70711 0.292893C9.31658 -0.097631 8.68342 -0.0976311 8.29289 0.292893L9 1ZM10.7929 4.20711C11.1834 4.59763 11.8166 4.59763 12.2071 4.20711C12.5976 3.81658 12.5976 3.18342 12.2071 2.79289L10.7929 4.20711ZM5.79289 2.79289C5.40237 3.18342 5.40237 3.81658 5.79289 4.20711C6.18342 4.59763 6.81658 4.59763 7.20711 4.20711L5.79289 2.79289ZM16 9.22V13.78H18V9.22H16ZM13.78 16H4.22V18H13.78V16ZM2 13.78V9.22H0V13.78H2ZM13 7H13.78V5H13V7ZM4.22 7H5V5H4.22V7ZM4.22 16C3.63372 16 3.25517 15.9992 2.96722 15.9753C2.69125 15.9524 2.58924 15.9135 2.53903 15.8874L1.61708 17.6622C2.00034 17.8613 2.39982 17.935 2.8017 17.9684C3.19162 18.0008 3.66729 18 4.22 18V16ZM0 13.78C0 14.3327 -0.00080359 14.8084 0.0315772 15.1983C0.0649521 15.6002 0.138669 15.9997 0.33776 16.3829L2.11259 15.461C2.0865 15.4108 2.04763 15.3088 2.02472 15.0328C2.0008 14.7448 2 14.3663 2 13.78H0ZM2.53903 15.8874C2.35638 15.7925 2.20746 15.6436 2.11259 15.461L0.337759 16.3829C0.622386 16.9309 1.06915 17.3776 1.61708 17.6622L2.53903 15.8874ZM16 13.78C16 14.3663 15.9992 14.7448 15.9753 15.0328C15.9524 15.3088 15.9135 15.4108 15.8874 15.461L17.6622 16.3829C17.8613 15.9997 17.935 15.6002 17.9684 15.1983C18.0008 14.8084 18 14.3327 18 13.78H16ZM13.78 18C14.3327 18 14.8084 18.0008 15.1983 17.9684C15.6002 17.935 15.9997 17.8613 16.3829 17.6622L15.461 15.8874C15.4108 15.9135 15.3088 15.9524 15.0328 15.9753C14.7448 15.9992 14.3663 16 13.78 16V18ZM15.8874 15.461C15.7925 15.6436 15.6436 15.7925 15.461 15.8874L16.3829 17.6622C16.9309 17.3776 17.3776 16.9309 17.6622 16.3829L15.8874 15.461ZM18 9.22C18 8.66729 18.0008 8.19162 17.9684 7.8017C17.935 7.39982 17.8613 7.00034 17.6622 6.61708L15.8874 7.53903C15.9135 7.58924 15.9524 7.69125 15.9753 7.96722C15.9992 8.25517 16 8.63372 16 9.22H18ZM13.78 7C14.3663 7 14.7448 7.0008 15.0328 7.02472C15.3088 7.04763 15.4108 7.0865 15.461 7.11259L16.3829 5.33776C15.9997 5.13867 15.6002 5.06495 15.1983 5.03158C14.8084 4.9992 14.3327 5 13.78 5V7ZM17.6622 6.61708C17.3776 6.06915 16.9309 5.62239 16.3829 5.33776L15.461 7.11259C15.6436 7.20746 15.7925 7.35638 15.8874 7.53903L17.6622 6.61708ZM2 9.22C2 8.63372 2.0008 8.25517 2.02472 7.96722C2.04763 7.69125 2.0865 7.58924 2.11259 7.53903L0.33776 6.61708C0.138669 7.00034 0.064952 7.39982 0.0315772 7.8017C-0.00080359 8.19162 0 8.66729 0 9.22H2ZM4.22 5C3.66729 5 3.19162 4.9992 2.8017 5.03158C2.39981 5.06495 2.00034 5.13867 1.61708 5.33776L2.53903 7.11259C2.58924 7.0865 2.69125 7.04763 2.96722 7.02472C3.25517 7.0008 3.63372 7 4.22 7V5ZM2.11259 7.53903C2.20746 7.35638 2.35638 7.20746 2.53903 7.11259L1.61708 5.33776C1.06915 5.62239 0.622386 6.06915 0.33776 6.61708L2.11259 7.53903ZM10 11L10 1L8 1L8 11H10ZM8.29289 1.70711L10.7929 4.20711L12.2071 2.79289L9.70711 0.292893L8.29289 1.70711ZM8.29289 0.292893L5.79289 2.79289L7.20711 4.20711L9.70711 1.70711L8.29289 0.292893Z" fill="black"/>
</svg>
