<svg width="51" height="50" viewBox="0 0 51 50" fill="none" xmlns="http://www.w3.org/2000/svg">
<g clip-path="url(#clip0_247_645)">
<path d="M25.5 50C39.3071 50 50.5 38.8071 50.5 25C50.5 11.1929 39.3071 0 25.5 0C11.6929 0 0.5 11.1929 0.5 25C0.5 38.8071 11.6929 50 25.5 50Z" fill="black"/>
<path fill-rule="evenodd" clip-rule="evenodd" d="M11.8164 24.7359C19.1044 21.5606 23.9642 19.4673 26.3958 18.4559C33.3386 15.5682 34.7812 15.0665 35.7215 15.05C35.9283 15.0463 36.3907 15.0976 36.6903 15.3406C36.9432 15.5459 37.0128 15.8231 37.0461 16.0177C37.0794 16.2122 37.1208 16.6555 37.0879 17.0018C36.7117 20.9549 35.0837 30.548 34.2555 34.9755C33.9051 36.849 33.215 37.4772 32.547 37.5386C31.0952 37.6722 29.9928 36.5792 28.5866 35.6574C26.3863 34.2151 25.1433 33.3172 23.0075 31.9098C20.5392 30.2832 22.1393 29.3892 23.5459 27.9282C23.9141 27.5459 30.3107 21.7276 30.4345 21.1998C30.45 21.1338 30.4644 20.8877 30.3182 20.7578C30.172 20.6279 29.9563 20.6723 29.8006 20.7077C29.5799 20.7577 26.0648 23.0811 19.2554 27.6776C18.2577 28.3627 17.354 28.6965 16.5443 28.679C15.6516 28.6598 13.9346 28.1743 12.6581 27.7594C11.0925 27.2505 9.84818 26.9814 9.95653 26.1171C10.013 25.6669 10.6329 25.2065 11.8164 24.7359Z" fill="white"/>
</g>
<defs>
<clipPath id="clip0_247_645">
<rect width="50" height="50" fill="white" transform="translate(0.5)"/>
</clipPath>
</defs>
</svg>
