<svg width="51" height="50" viewBox="0 0 51 50" fill="none" xmlns="http://www.w3.org/2000/svg">
<g clip-path="url(#clip0_247_644)">
<path d="M42.8271 8.65773C39.6403 7.19548 36.2229 6.11815 32.6498 5.50112C32.5847 5.48922 32.5197 5.51897 32.4862 5.5785C32.0467 6.36019 31.5599 7.37998 31.2189 8.18153C27.3758 7.60618 23.5525 7.60618 19.7882 8.18153C19.4472 7.36217 18.9427 6.36019 18.5012 5.5785C18.4677 5.52096 18.4027 5.4912 18.3376 5.50112C14.7665 6.11618 11.3491 7.1935 8.16028 8.65773C8.13268 8.66963 8.10901 8.68949 8.09331 8.71526C1.61123 18.3993 -0.16448 27.8454 0.706625 37.1743C0.710567 37.22 0.736187 37.2636 0.771663 37.2914C5.04835 40.4321 9.19106 42.3388 13.2568 43.6026C13.3219 43.6225 13.3908 43.5986 13.4323 43.5451C14.394 42.2317 15.2513 40.8468 15.9864 39.3905C16.0298 39.3052 15.9884 39.204 15.8997 39.1703C14.5399 38.6544 13.245 38.0255 11.9994 37.3113C11.9009 37.2537 11.893 37.1128 11.9837 37.0453C12.2458 36.8489 12.508 36.6446 12.7582 36.4382C12.8035 36.4005 12.8666 36.3926 12.9199 36.4164C21.1027 40.1524 29.9615 40.1524 38.0478 36.4164C38.1011 36.3906 38.1642 36.3986 38.2114 36.4363C38.4618 36.6426 38.7239 36.8489 38.988 37.0453C39.0786 37.1128 39.0727 37.2537 38.9742 37.3113C37.7286 38.0393 36.4337 38.6544 35.0719 39.1683C34.9832 39.202 34.9438 39.3052 34.9872 39.3905C35.738 40.8448 36.5954 42.2296 37.5394 43.5431C37.5788 43.5986 37.6497 43.6225 37.7148 43.6026C41.8003 42.3388 45.943 40.4321 50.2196 37.2914C50.2571 37.2636 50.2808 37.222 50.2847 37.1763C51.3272 26.391 48.5385 17.0224 42.8921 8.71724C42.8783 8.68949 42.8547 8.66963 42.8271 8.65773ZM17.2084 31.494C14.7448 31.494 12.7149 29.2322 12.7149 26.4546C12.7149 23.6769 14.7054 21.4151 17.2084 21.4151C19.731 21.4151 21.7413 23.6967 21.7018 26.4546C21.7018 29.2322 19.7113 31.494 17.2084 31.494ZM33.8224 31.494C31.3589 31.494 29.3289 29.2322 29.3289 26.4546C29.3289 23.6769 31.3194 21.4151 33.8224 21.4151C36.3451 21.4151 38.3553 23.6967 38.3159 26.4546C38.3159 29.2322 36.3451 31.494 33.8224 31.494Z" fill="black"/>
</g>
<defs>
<clipPath id="clip0_247_644">
<rect width="50" height="50" fill="white" transform="translate(0.5)"/>
</clipPath>
</defs>
</svg>
