<svg width="16" height="16" viewBox="0 0 16 16" fill="none" xmlns="http://www.w3.org/2000/svg">
<path d="M14 5.66665L14.5737 5.18354L14.9805 5.66665L14.5737 6.14975L14 5.66665ZM4.66667 6.41665C4.25245 6.41665 3.91667 6.08086 3.91667 5.66665C3.91667 5.25243 4.25245 4.91665 4.66667 4.91665V6.41665ZM12.6088 2.85021L14.5737 5.18354L13.4263 6.14975L11.4614 3.81641L12.6088 2.85021ZM14.5737 6.14975L12.6088 8.48308L11.4614 7.51688L13.4263 5.18354L14.5737 6.14975ZM14 6.41665H4.66667V4.91665H14V6.41665Z" fill="#707070"/>
<path d="M2 10.3333L1.40876 9.87188L1.0486 10.3333L1.40876 10.7948L2 10.3333ZM11.3333 11.0833C11.7475 11.0833 12.0833 10.7475 12.0833 10.3333C12.0833 9.91912 11.7475 9.58333 11.3333 9.58333L11.3333 11.0833ZM3.2299 7.53855L1.40876 9.87188L2.59124 10.7948L4.41237 8.46145L3.2299 7.53855ZM1.40876 10.7948L3.2299 13.1281L4.41237 12.2052L2.59124 9.87188L1.40876 10.7948ZM2 11.0833L11.3333 11.0833L11.3333 9.58333L2 9.58333L2 11.0833Z" fill="#707070"/>
</svg>
