<svg width="67" height="67" viewBox="0 0 67 67" fill="none" xmlns="http://www.w3.org/2000/svg">
<path d="M16.9993 53.1113H8.66602V58.6669H16.9993V53.1113Z" fill="#BEC6C6"/>
<path d="M50.3327 58.6667H58.666V53.1112H50.3327V58.6667Z" fill="#BEC6C6"/>
<path d="M64.2217 50.3334V11.4445C64.2217 9.9104 62.978 8.66675 61.4439 8.66675L5.88835 8.66675C4.35423 8.66675 3.11057 9.9104 3.11057 11.4445V50.3334C3.11057 51.8675 4.35423 53.1112 5.88835 53.1112L61.4439 53.1112C62.978 53.1112 64.2217 51.8675 64.2217 50.3334Z" fill="#BEC6C6"/>
<path d="M60.0547 48.9446V12.8335L7.27691 12.8335V48.9446H60.0547Z" fill="white"/>
<path d="M35.4848 37.6947C36.9939 35.747 37.8129 33.353 37.8129 30.8891C37.8129 28.4252 36.9939 26.0312 35.4848 24.0836L36.5403 23.028C36.6857 22.9035 36.8038 22.7503 36.8872 22.578C36.9706 22.4056 37.0174 22.218 37.0248 22.0267C37.0322 21.8354 36.9999 21.6447 36.9301 21.4664C36.8603 21.2882 36.7544 21.1263 36.619 20.991C36.4837 20.8556 36.3218 20.7497 36.1436 20.6799C35.9653 20.6101 35.7746 20.5778 35.5833 20.5852C35.3921 20.5926 35.2044 20.6395 35.0321 20.7228C34.8597 20.8062 34.7065 20.9243 34.582 21.0697L33.5265 22.1252C31.5788 20.6161 29.1848 19.7971 26.7209 19.7971C24.257 19.7971 21.863 20.6161 19.9153 22.1252L18.8598 21.0697C18.5941 20.8421 18.2523 20.7232 17.9028 20.7367C17.5532 20.7502 17.2216 20.8951 16.9743 21.1425C16.7269 21.3899 16.582 21.7214 16.5685 22.071C16.555 22.4205 16.6739 22.7623 16.9015 23.028L17.957 24.0836C16.4479 26.0312 15.6289 28.4252 15.6289 30.8891C15.6289 33.353 16.4479 35.747 17.957 37.6947L16.9015 38.7502C16.7561 38.8747 16.638 39.028 16.5546 39.2003C16.4712 39.3726 16.4244 39.5603 16.417 39.7515C16.4096 39.9428 16.4419 40.1336 16.5117 40.3118C16.5815 40.49 16.6874 40.6519 16.8228 40.7872C16.9581 40.9226 17.12 41.0285 17.2982 41.0983C17.4765 41.1682 17.6672 41.2004 17.8585 41.193C18.0498 41.1856 18.2374 41.1388 18.4097 41.0554C18.5821 40.972 18.7353 40.854 18.8598 40.7086L19.9153 39.653C21.863 41.1621 24.257 41.9811 26.7209 41.9811C29.1848 41.9811 31.5788 41.1621 33.5265 39.653L34.582 40.7086C34.7065 40.854 34.8597 40.972 35.0321 41.0554C35.2044 41.1388 35.3921 41.1856 35.5833 41.193C35.7746 41.2004 35.9653 41.1682 36.1436 41.0983C36.3218 41.0285 36.4837 40.9226 36.619 40.7872C36.7544 40.6519 36.8603 40.49 36.9301 40.3118C36.9999 40.1336 37.0322 39.9428 37.0248 39.7515C37.0174 39.5603 36.9706 39.3726 36.8872 39.2003C36.8038 39.028 36.6857 38.8747 36.5403 38.7502L35.4848 37.6947Z" fill="black"/>
<path d="M10.0551 18.3892H7.27734V26.7225H10.0551V18.3892Z" fill="#BEC6C6"/>
<path d="M10.0551 35.0559H7.27734V43.3892H10.0551V35.0559Z" fill="#BEC6C6"/>
<path d="M53.1101 23.9448H48.5545C48.2488 23.4152 47.7768 23.0014 47.2119 22.7674C46.6469 22.5334 46.0206 22.4923 45.4299 22.6506C44.8393 22.8088 44.3174 23.1576 43.9451 23.6427C43.5729 24.1278 43.3711 24.7222 43.3711 25.3337C43.3711 25.9452 43.5729 26.5396 43.9451 27.0247C44.3174 27.5098 44.8393 27.8586 45.4299 28.0168C46.0206 28.1751 46.6469 28.134 47.2119 27.9C47.7768 27.666 48.2488 27.2521 48.5545 26.7226H53.1101C53.4784 26.7226 53.8317 26.5762 54.0921 26.3158C54.3526 26.0553 54.4989 25.702 54.4989 25.3337C54.4989 24.9653 54.3526 24.6121 54.0921 24.3516C53.8317 24.0911 53.4784 23.9448 53.1101 23.9448Z" fill="#BEC6C6"/>
<path d="M61.4439 7.27808H5.88835C4.78328 7.27808 3.72347 7.71706 2.94207 8.49846C2.16067 9.27987 1.72168 10.3397 1.72168 11.4447V50.3336C1.72168 51.4387 2.16067 52.4985 2.94207 53.2799C3.72347 54.0613 4.78328 54.5003 5.88835 54.5003H7.27724V58.667C7.27724 59.0353 7.42356 59.3886 7.68403 59.6491C7.9445 59.9095 8.29777 60.0559 8.66612 60.0559H16.9995C17.3678 60.0559 17.7211 59.9095 17.9816 59.6491C18.242 59.3886 18.3883 59.0353 18.3883 58.667V54.5003H48.9439V58.667C48.9439 59.0353 49.0902 59.3886 49.3507 59.6491C49.6112 59.9095 49.9644 60.0559 50.3328 60.0559H58.6661C59.0345 60.0559 59.3878 59.9095 59.6482 59.6491C59.9087 59.3886 60.055 59.0353 60.055 58.667V54.5003H61.4439C62.549 54.5003 63.6088 54.0613 64.3902 53.2799C65.1716 52.4985 65.6106 51.4387 65.6106 50.3336V11.4447C65.6106 10.3397 65.1716 9.27987 64.3902 8.49846C63.6088 7.71706 62.549 7.27808 61.4439 7.27808ZM15.6106 57.2781H10.055V54.5003H15.6106V57.2781ZM57.2772 57.2781H51.7217V54.5003H57.2772V57.2781ZM62.8328 50.3336C62.8328 50.702 62.6865 51.0553 62.426 51.3157C62.1655 51.5762 61.8123 51.7225 61.4439 51.7225H5.88835C5.51999 51.7225 5.16672 51.5762 4.90625 51.3157C4.64579 51.0553 4.49946 50.702 4.49946 50.3336V11.4447C4.49946 11.0764 4.64579 10.7231 4.90625 10.4627C5.16672 10.2022 5.51999 10.0559 5.88835 10.0559H61.4439C61.8123 10.0559 62.1655 10.2022 62.426 10.4627C62.6865 10.7231 62.8328 11.0764 62.8328 11.4447V50.3336Z" fill="#414141"/>
<path d="M55.8883 35.0559H53.1106C52.7422 35.0559 52.3889 34.9095 52.1285 34.6491C51.868 34.3886 51.7217 34.0353 51.7217 33.667C51.7217 33.2986 51.868 32.9453 52.1285 32.6849C52.3889 32.4244 52.7422 32.2781 53.1106 32.2781H55.8883C56.2567 32.2781 56.61 32.4244 56.8704 32.6849C57.1309 32.9453 57.2772 33.2986 57.2772 33.667C57.2772 34.0353 57.1309 34.3886 56.8704 34.6491C56.61 34.9095 56.2567 35.0559 55.8883 35.0559Z" fill="#BEC6C6"/>
<path d="M47.5553 35.0559H44.7776C44.4092 35.0559 44.0559 34.9095 43.7955 34.6491C43.535 34.3886 43.3887 34.0353 43.3887 33.667C43.3887 33.2986 43.535 32.9453 43.7955 32.6849C44.0559 32.4244 44.4092 32.2781 44.7776 32.2781H47.5553C47.9237 32.2781 48.277 32.4244 48.5374 32.6849C48.7979 32.9453 48.9442 33.2986 48.9442 33.667C48.9442 34.0353 48.7979 34.3886 48.5374 34.6491C48.277 34.9095 47.9237 35.0559 47.5553 35.0559Z" fill="#BEC6C6"/>
<path d="M55.8883 40.6113H53.1106C52.7422 40.6113 52.3889 40.4649 52.1285 40.2045C51.868 39.944 51.7217 39.5907 51.7217 39.2224C51.7217 38.854 51.868 38.5008 52.1285 38.2403C52.3889 37.9798 52.7422 37.8335 53.1106 37.8335H55.8883C56.2567 37.8335 56.61 37.9798 56.8704 38.2403C57.1309 38.5008 57.2772 38.854 57.2772 39.2224C57.2772 39.5907 57.1309 39.944 56.8704 40.2045C56.61 40.4649 56.2567 40.6113 55.8883 40.6113Z" fill="#BEC6C6"/>
<path d="M47.5553 40.6113H44.7776C44.4092 40.6113 44.0559 40.4649 43.7955 40.2045C43.535 39.944 43.3887 39.5907 43.3887 39.2224C43.3887 38.854 43.535 38.5008 43.7955 38.2403C44.0559 37.9798 44.4092 37.8335 44.7776 37.8335H47.5553C47.9237 37.8335 48.277 37.9798 48.5374 38.2403C48.7979 38.5008 48.9442 38.854 48.9442 39.2224C48.9442 39.5907 48.7979 39.944 48.5374 40.2045C48.277 40.4649 47.9237 40.6113 47.5553 40.6113Z" fill="#BEC6C6"/>
<path d="M33.4296 33.1531L32.0407 32.3615C32.2339 31.6547 32.2853 30.9167 32.1921 30.1899C32.0989 29.4631 31.8628 28.762 31.4974 28.1269C31.1321 27.4917 30.6447 26.9351 30.0634 26.4891C29.4821 26.0431 28.8183 25.7165 28.1102 25.5281V23.9448C28.1102 23.5764 27.9639 23.2232 27.7034 22.9627C27.4429 22.7022 27.0897 22.5559 26.7213 22.5559C26.3529 22.5559 25.9997 22.7022 25.7392 22.9627C25.4787 23.2232 25.3324 23.5764 25.3324 23.9448V25.5281C24.6231 25.715 23.9578 26.0406 23.3749 26.4859C22.7921 26.9313 22.3032 27.4877 21.9364 28.123C21.5697 28.7583 21.3325 29.4599 21.2383 30.1874C21.1442 30.9148 21.195 31.6537 21.388 32.3615L19.9991 33.1531C19.7315 33.3047 19.5218 33.5409 19.4029 33.8245C19.284 34.1081 19.2626 34.4232 19.3421 34.7203C19.4215 35.0173 19.5973 35.2797 19.8419 35.4661C20.0865 35.6525 20.386 35.7525 20.6935 35.7504C21.2074 35.7504 21.4574 35.5281 22.7491 34.7781C23.266 35.303 23.8822 35.7199 24.5618 36.0044C25.2413 36.289 25.9707 36.4355 26.7074 36.4355C27.4441 36.4355 28.1735 36.289 28.8531 36.0044C29.5326 35.7199 30.1488 35.303 30.6657 34.7781C31.9852 35.542 32.2074 35.7504 32.7213 35.7504C33.03 35.7557 33.3317 35.658 33.5787 35.4726C33.8257 35.2873 34.0039 35.025 34.0852 34.7271C34.1664 34.4292 34.1461 34.1127 34.0273 33.8277C33.9086 33.5427 33.6983 33.3053 33.4296 33.1531ZM26.7213 33.667C26.1719 33.667 25.6349 33.5041 25.178 33.1989C24.7212 32.8937 24.3652 32.4598 24.155 31.9523C23.9447 31.4447 23.8897 30.8862 23.9969 30.3473C24.1041 29.8085 24.3686 29.3135 24.7571 28.9251C25.1456 28.5366 25.6405 28.272 26.1794 28.1648C26.7182 28.0577 27.2767 28.1127 27.7843 28.3229C28.2919 28.5332 28.7257 28.8892 29.0309 29.346C29.3362 29.8028 29.4991 30.3398 29.4991 30.8892C29.4991 31.626 29.2064 32.3325 28.6855 32.8534C28.1646 33.3744 27.458 33.667 26.7213 33.667Z" fill="#CDB4FF"/>
</svg>
