<svg width="100" height="100" viewBox="0 0 100 100" fill="none" xmlns="http://www.w3.org/2000/svg">
<path d="M95.8334 58.333V70.833C95.8334 71.9381 95.3944 72.9979 94.613 73.7793C93.8316 74.5607 92.7718 74.9997 91.6667 74.9997H8.33341C7.22835 74.9997 6.16854 74.5607 5.38714 73.7793C4.60573 72.9979 4.16675 71.9381 4.16675 70.833V58.333H95.8334Z" fill="#BEC6C6"/>
<path d="M95.8334 12.4997V58.333H4.16675V12.4997C4.16675 11.3946 4.60573 10.3348 5.38714 9.5534C6.16854 8.77199 7.22835 8.33301 8.33341 8.33301H91.6667C92.7718 8.33301 93.8316 8.77199 94.613 9.5534C95.3944 10.3348 95.8334 11.3946 95.8334 12.4997Z" fill="#F8F9F9"/>
<path d="M68.75 91.6667H31.25C33.232 89.6867 34.8042 87.3354 35.8766 84.7472C36.9491 82.1591 37.5007 79.3849 37.5 76.5833V75H62.5V76.5833C62.5031 82.2405 64.751 87.6653 68.75 91.6667Z" fill="#BEC6C6"/>
<path d="M29.1667 35.4163C31.4679 35.4163 33.3333 33.5509 33.3333 31.2497C33.3333 28.9485 31.4679 27.083 29.1667 27.083C26.8655 27.083 25 28.9485 25 31.2497C25 33.5509 26.8655 35.4163 29.1667 35.4163Z" fill="black"/>
<path d="M29.1667 16.667C25.8703 16.667 22.648 17.6445 19.9072 19.4758C17.1663 21.3072 15.0301 23.9102 13.7687 26.9556C12.5072 30.001 12.1772 33.3521 12.8203 36.5852C13.4633 39.8182 15.0507 42.7879 17.3816 45.1188C19.7124 47.4496 22.6822 49.037 25.9152 49.6801C29.1482 50.3232 32.4993 49.9931 35.5447 48.7317C38.5902 47.4702 41.1931 45.334 43.0245 42.5932C44.8559 39.8523 45.8333 36.63 45.8333 33.3337C45.8333 28.9134 44.0774 24.6742 40.9518 21.5485C37.8262 18.4229 33.5869 16.667 29.1667 16.667ZM37.5 42.7295C37.1875 40.7718 36.1874 38.9896 34.6791 37.703C33.1708 36.4164 31.2533 35.7097 29.2708 35.7097C27.2884 35.7097 25.3708 36.4164 23.8626 37.703C22.3543 38.9896 21.3541 40.7718 21.0417 42.7295C19.1272 41.0551 17.769 38.8365 17.1485 36.3699C16.528 33.9033 16.6747 31.3062 17.5691 28.9252C18.4634 26.5442 20.0627 24.4926 22.1536 23.0445C24.2445 21.5963 26.7274 20.8204 29.2708 20.8204C31.8143 20.8204 34.2972 21.5963 36.3881 23.0445C38.4789 24.4926 40.0783 26.5442 40.9726 28.9252C41.8669 31.3062 42.0137 33.9033 41.3932 36.3699C40.7727 38.8365 39.4145 41.0551 37.5 42.7295Z" fill="black"/>
<path d="M68.75 16.667H52.0833C50.9327 16.667 50 17.5997 50 18.7503V22.917C50 24.0676 50.9327 25.0003 52.0833 25.0003H68.75C69.9006 25.0003 70.8333 24.0676 70.8333 22.917V18.7503C70.8333 17.5997 69.9006 16.667 68.75 16.667Z" fill="#A274FF" fill-opacity="0.5"/>
<path d="M91.6667 6.25H8.33337C6.67577 6.25 5.08606 6.90848 3.91396 8.08058C2.74185 9.25269 2.08337 10.8424 2.08337 12.5V70.8333C2.08337 72.4909 2.74185 74.0806 3.91396 75.2527C5.08606 76.4249 6.67577 77.0833 8.33337 77.0833H35.4167C35.3055 82.0142 33.2896 86.7104 29.7917 90.1875C29.4992 90.4776 29.2992 90.848 29.2172 91.2518C29.1351 91.6556 29.1746 92.0746 29.3307 92.4559C29.4868 92.8373 29.7525 93.1637 30.0941 93.3941C30.4358 93.6244 30.838 93.7483 31.25 93.75H68.75C69.1638 93.7524 69.569 93.6315 69.9138 93.4028C70.2587 93.174 70.5276 92.8478 70.6862 92.4656C70.8449 92.0834 70.8862 91.6626 70.8048 91.2569C70.7234 90.8512 70.523 90.4789 70.2292 90.1875C66.7236 86.7138 64.7001 82.0171 64.5834 77.0833H91.6667C93.3243 77.0833 94.914 76.4249 96.0861 75.2527C97.2582 74.0806 97.9167 72.4909 97.9167 70.8333V12.5C97.9167 10.8424 97.2582 9.25269 96.0861 8.08058C94.914 6.90848 93.3243 6.25 91.6667 6.25ZM6.25004 12.5C6.25004 11.9475 6.46953 11.4176 6.86024 11.0269C7.25094 10.6362 7.78084 10.4167 8.33337 10.4167H91.6667C92.2192 10.4167 92.7492 10.6362 93.1399 11.0269C93.5306 11.4176 93.75 11.9475 93.75 12.5V56.25H6.25004V12.5ZM64.3542 89.5833H35.6459C38.1309 85.8809 39.4978 81.5415 39.5834 77.0833H60.4167C60.5023 81.5415 61.8692 85.8809 64.3542 89.5833ZM93.75 70.8333C93.75 71.3859 93.5306 71.9158 93.1399 72.3065C92.7492 72.6972 92.2192 72.9167 91.6667 72.9167H8.33337C7.78084 72.9167 7.25094 72.6972 6.86024 72.3065C6.46953 71.9158 6.25004 71.3859 6.25004 70.8333V60.4167H93.75V70.8333Z" fill="#414141"/>
<path d="M52.0834 68.7497H47.9167C47.3642 68.7497 46.8343 68.5302 46.4436 68.1395C46.0529 67.7488 45.8334 67.2189 45.8334 66.6663C45.8334 66.1138 46.0529 65.5839 46.4436 65.1932C46.8343 64.8025 47.3642 64.583 47.9167 64.583H52.0834C52.6359 64.583 53.1658 64.8025 53.5565 65.1932C53.9472 65.5839 54.1667 66.1138 54.1667 66.6663C54.1667 67.2189 53.9472 67.7488 53.5565 68.1395C53.1658 68.5302 52.6359 68.7497 52.0834 68.7497Z" fill="#F8F9F9"/>
<path d="M56.25 41.6667H52.0833C51.5308 41.6667 51.0009 41.4472 50.6102 41.0565C50.2195 40.6658 50 40.1359 50 39.5833C50 39.0308 50.2195 38.5009 50.6102 38.1102C51.0009 37.7195 51.5308 37.5 52.0833 37.5H56.25C56.8025 37.5 57.3324 37.7195 57.7231 38.1102C58.1138 38.5009 58.3333 39.0308 58.3333 39.5833C58.3333 40.1359 58.1138 40.6658 57.7231 41.0565C57.3324 41.4472 56.8025 41.6667 56.25 41.6667Z" fill="#BEC6C6"/>
<path d="M77.0833 49.9997H52.0833C51.5308 49.9997 51.0009 49.7802 50.6102 49.3895C50.2195 48.9988 50 48.4689 50 47.9163C50 47.3638 50.2195 46.8339 50.6102 46.4432C51.0009 46.0525 51.5308 45.833 52.0833 45.833H77.0833C77.6359 45.833 78.1658 46.0525 78.5565 46.4432C78.9472 46.8339 79.1667 47.3638 79.1667 47.9163C79.1667 48.4689 78.9472 48.9988 78.5565 49.3895C78.1658 49.7802 77.6359 49.9997 77.0833 49.9997Z" fill="#BEC6C6"/>
<path d="M85.4167 33.3337H52.0833C51.5308 33.3337 51.0009 33.1142 50.6102 32.7235C50.2195 32.3328 50 31.8029 50 31.2503C50 30.6978 50.2195 30.1679 50.6102 29.7772C51.0009 29.3865 51.5308 29.167 52.0833 29.167H85.4167C85.9692 29.167 86.4991 29.3865 86.8898 29.7772C87.2805 30.1679 87.5 30.6978 87.5 31.2503C87.5 31.8029 87.2805 32.3328 86.8898 32.7235C86.4991 33.1142 85.9692 33.3337 85.4167 33.3337Z" fill="#BEC6C6"/>
<path d="M85.4167 41.6667H64.5833C64.0308 41.6667 63.5009 41.4472 63.1102 41.0565C62.7195 40.6658 62.5 40.1359 62.5 39.5833C62.5 39.0308 62.7195 38.5009 63.1102 38.1102C63.5009 37.7195 64.0308 37.5 64.5833 37.5H85.4167C85.9692 37.5 86.4991 37.7195 86.8898 38.1102C87.2805 38.5009 87.5 39.0308 87.5 39.5833C87.5 40.1359 87.2805 40.6658 86.8898 41.0565C86.4991 41.4472 85.9692 41.6667 85.4167 41.6667Z" fill="#BEC6C6"/>
</svg>
