<svg width="78" height="78" viewBox="0 0 78 78" fill="none" xmlns="http://www.w3.org/2000/svg">
<path d="M18.0444 77.6668C28.0101 77.6668 36.0889 69.6943 36.0889 59.8598C36.0889 50.0252 28.0101 42.0527 18.0444 42.0527C8.07877 42.0527 0 50.0252 0 59.8598C0 69.6943 8.07877 77.6668 18.0444 77.6668Z" fill="#26A17B"/>
<path fill-rule="evenodd" clip-rule="evenodd" d="M20.2115 61.3993V61.397C20.0875 61.4059 19.448 61.4438 18.0214 61.4438C16.8823 61.4438 16.0805 61.4104 15.7985 61.397V61.4004C11.4137 61.2101 8.14092 60.4566 8.14092 59.5551C8.14092 58.6548 11.4137 57.9013 15.7985 57.7077V60.6503C16.085 60.6703 16.906 60.7182 18.0406 60.7182C19.4018 60.7182 20.0841 60.6625 20.2115 60.6514V57.7099C24.5873 57.9024 27.8522 58.6559 27.8522 59.5551C27.8522 60.4566 24.5873 61.2078 20.2115 61.3993ZM20.2115 57.4038V54.7706H26.3173V50.7551H9.69274V54.7706H15.7985V57.4027C10.8363 57.6275 7.10449 58.598 7.10449 59.7599C7.10449 60.9218 10.8363 61.8912 15.7985 62.1171V70.5554H20.2115V62.1149C25.1659 61.8901 28.8886 60.9207 28.8886 59.7599C28.8886 58.5991 25.1659 57.6297 20.2115 57.4038Z" fill="white"/>
<path d="M59.2886 57.3157C69.2543 57.3157 77.333 49.3432 77.333 39.5087C77.333 29.6741 69.2543 21.7017 59.2886 21.7017C49.3229 21.7017 41.2441 29.6741 41.2441 39.5087C41.2441 49.3432 49.3229 57.3157 59.2886 57.3157Z" fill="#627EEA"/>
<path d="M59.8496 26.1536V36.0253L68.3046 39.7537L59.8496 26.1536Z" fill="white" fill-opacity="0.602"/>
<path d="M59.8496 26.1536L51.3936 39.7537L59.8496 36.0253V26.1536Z" fill="white"/>
<path d="M59.8496 46.1511V52.8588L68.3102 41.3076L59.8496 46.1511Z" fill="white" fill-opacity="0.602"/>
<path d="M59.8496 52.8586V46.1498L51.3936 41.3074L59.8496 52.8586Z" fill="white"/>
<path d="M59.8496 44.5983L68.3046 39.7537L59.8496 36.0276V44.5983Z" fill="white" fill-opacity="0.2"/>
<path d="M51.3936 39.7537L59.8496 44.5983V36.0276L51.3936 39.7537Z" fill="white" fill-opacity="0.602"/>
<path d="M37.3333 17.9999C37.3333 21.494 36.2972 24.9097 34.356 27.815C32.4147 30.7203 29.6556 32.9846 26.4274 34.3218C23.1992 35.6589 19.6471 36.0088 16.2201 35.3271C12.7931 34.6454 9.64518 32.9629 7.17445 30.4921C4.70373 28.0214 3.02114 24.8735 2.33947 21.4465C1.6578 18.0195 2.00765 14.4673 3.3448 11.2392C4.68195 8.01101 6.94633 5.25186 9.8516 3.31062C12.7569 1.36938 16.1725 0.333252 19.6667 0.333252C24.3522 0.333252 28.8457 2.19456 32.1589 5.5077C35.472 8.82084 37.3333 13.3144 37.3333 17.9999Z" fill="#F7931A"/>
<path fill-rule="evenodd" clip-rule="evenodd" d="M13.0431 5.89408L18.2917 7.26517L19.4648 3L22.0891 3.69466L20.9617 7.78364L23.1023 8.34463L24.2317 4.2111L26.9017 4.90778L25.7515 9.06359C25.7515 9.06359 30.1115 10.0053 31.1371 13.4645C32.1628 16.9236 28.8824 18.7402 27.8692 18.8091C27.8692 18.8091 31.6894 20.8526 30.3773 24.8727C29.0651 28.8928 25.0373 29.6118 20.7998 28.6903L19.6495 33L16.9796 32.3033L18.1526 28.0604L16.0349 27.4974L14.8618 31.7707L12.2126 31.076L13.3877 26.823L8 25.4053L9.35783 22.4647C9.35783 22.4647 10.8776 22.8697 11.4527 23.0034C12.0278 23.137 12.3974 22.5538 12.5593 21.9705C12.7213 21.3872 15.1608 11.7207 15.3913 10.9248C15.6217 10.1289 15.5283 9.50712 14.5608 9.26207C13.5933 9.01701 12.277 8.63424 12.277 8.63424L13.0431 5.89408ZM18.3374 18.6957L16.884 24.3319C16.884 24.3319 24.0905 26.8696 25.0124 23.2991C25.9342 19.7285 18.3374 18.6957 18.3374 18.6957ZM19.0059 16.0223L20.4323 10.858C20.4323 10.858 26.6027 11.9354 25.8428 14.8092C25.083 17.683 21.4455 16.5813 19.0059 16.0223Z" fill="white"/>
</svg>
