<svg width="28" height="29" viewBox="0 0 28 29" fill="none" xmlns="http://www.w3.org/2000/svg">
<path d="M14 28.1764C21.732 28.1764 28 22.0624 28 14.5203C28 6.97829 21.732 0.864258 14 0.864258C6.26801 0.864258 0 6.97829 0 14.5203C0 22.0624 6.26801 28.1764 14 28.1764Z" fill="#627EEA"/>
<path d="M14.4355 4.27734V11.8479L20.9954 14.7072L14.4355 4.27734Z" fill="white" fill-opacity="0.602"/>
<path d="M14.4357 4.27734L7.875 14.7072L14.4357 11.8479V4.27734Z" fill="white"/>
<path d="M14.4355 19.6139V24.7579L20.9998 15.8994L14.4355 19.6139Z" fill="white" fill-opacity="0.602"/>
<path d="M14.4357 24.7579V19.613L7.875 15.8994L14.4357 24.7579Z" fill="white"/>
<path d="M14.4355 18.4224L20.9954 14.7071L14.4355 11.8496V18.4224Z" fill="white" fill-opacity="0.2"/>
<path d="M7.875 14.7071L14.4357 18.4224V11.8496L7.875 14.7071Z" fill="white" fill-opacity="0.602"/>
</svg>
