<svg width="18" height="24" viewBox="0 0 18 24" fill="none" xmlns="http://www.w3.org/2000/svg">
<path fill-rule="evenodd" clip-rule="evenodd" d="M3.89038 2.31526L7.93932 3.41214L8.84424 0L10.8687 0.555728L9.99903 3.82691L11.6503 4.2757L12.5216 0.968879L14.5813 1.52623L13.694 4.85087C13.694 4.85087 17.0574 5.60427 17.8487 8.37157C18.6399 11.1389 16.1093 12.5922 15.3277 12.6473C15.3277 12.6473 18.2747 14.282 17.2625 17.4981C16.2502 20.7142 13.143 21.2894 9.8741 20.5522L8.98679 24L6.92708 23.4427L7.83201 20.0483L6.19834 19.5979L5.29341 23.0165L3.24972 22.4608L4.15625 19.0584L0 17.9243L1.04747 15.5717C1.04747 15.5717 2.21987 15.8958 2.66352 16.0027C3.10718 16.1096 3.39227 15.643 3.5172 15.1764C3.64212 14.7098 5.52405 6.97657 5.70183 6.33984C5.87961 5.7031 5.80754 5.2057 5.06118 5.00965C4.31481 4.81361 3.29937 4.50739 3.29937 4.50739L3.89038 2.31526ZM7.97456 12.5565L6.85341 17.0656C6.85341 17.0656 12.4127 19.0957 13.1238 16.2392C13.8349 13.3828 7.97456 12.5565 7.97456 12.5565ZM8.49028 10.4179L9.59061 6.28637C9.59061 6.28637 14.3507 7.14832 13.7645 9.44738C13.1783 11.7464 10.3722 10.8651 8.49028 10.4179Z" fill="white"/>
</svg>
