<svg width="28" height="29" viewBox="0 0 28 29" fill="none" xmlns="http://www.w3.org/2000/svg">
<path d="M14 28.1764C21.732 28.1764 28 22.0624 28 14.5203C28 6.97829 21.732 0.864258 14 0.864258C6.26801 0.864258 0 6.97829 0 14.5203C0 22.0624 6.26801 28.1764 14 28.1764Z" fill="#26A17B"/>
<path fill-rule="evenodd" clip-rule="evenodd" d="M15.6819 15.701V15.6993C15.5857 15.7061 15.0896 15.7351 13.9827 15.7351C13.0989 15.7351 12.4768 15.7095 12.2581 15.6993V15.7019C8.85607 15.5559 6.31682 14.9781 6.31682 14.2867C6.31682 13.5963 8.85607 13.0184 12.2581 12.8699V15.1266C12.4803 15.142 13.1173 15.1787 13.9976 15.1787C15.0537 15.1787 15.5831 15.136 15.6819 15.1274V12.8716C19.0769 13.0193 21.6101 13.5971 21.6101 14.2867C21.6101 14.9781 19.0769 15.5542 15.6819 15.701ZM15.6819 12.6369V10.6175H20.4192V7.53809H7.52082V10.6175H12.2581V12.6361C8.40807 12.8085 5.5127 13.5527 5.5127 14.4438C5.5127 15.3348 8.40807 16.0782 12.2581 16.2515V22.7228H15.6819V16.2498C19.5258 16.0774 22.4142 15.334 22.4142 14.4438C22.4142 13.5536 19.5258 12.8102 15.6819 12.6369Z" fill="white"/>
</svg>
