<svg width="18" height="16" viewBox="0 0 18 16" fill="none" xmlns="http://www.w3.org/2000/svg">
<path fill-rule="evenodd" clip-rule="evenodd" d="M10.6819 8.701V8.6993C10.5857 8.70612 10.0896 8.73514 8.98269 8.73514C8.09894 8.73514 7.47682 8.70954 7.25807 8.6993V8.70186C3.85607 8.55591 1.31682 7.97808 1.31682 7.28675C1.31682 6.59626 3.85607 6.01844 7.25807 5.86993V8.12659C7.48032 8.14196 8.11732 8.17866 8.99757 8.17866C10.0537 8.17866 10.5831 8.13598 10.6819 8.12745V5.87163C14.0769 6.01929 16.6101 6.59711 16.6101 7.28675C16.6101 7.97808 14.0769 8.5542 10.6819 8.701ZM10.6819 5.63692V3.61753H15.4192V0.538086H2.52082V3.61753H7.25807V5.63607C3.40807 5.80848 0.512695 6.55273 0.512695 7.44379C0.512695 8.33485 3.40807 9.07825 7.25807 9.25151V15.7228H10.6819V9.2498C14.5258 9.0774 17.4142 8.33399 17.4142 7.44379C17.4142 6.55358 14.5258 5.81018 10.6819 5.63692Z" fill="white"/>
</svg>
