<svg width="20" height="20" viewBox="0 0 20 20" fill="none" xmlns="http://www.w3.org/2000/svg">
<g clip-path="url(#clip0_117_168)">
<path d="M10 20C11.9778 20 13.9112 19.4135 15.5557 18.3147C17.2002 17.2159 18.4819 15.6541 19.2388 13.8268C19.9957 11.9996 20.1937 9.98891 19.8079 8.0491C19.422 6.10929 18.4696 4.32746 17.0711 2.92894C15.6726 1.53041 13.8907 0.578004 11.9509 0.192152C10.0111 -0.1937 8.00046 0.0043328 6.1732 0.761209C4.34593 1.51809 2.78415 2.79981 1.68533 4.4443C0.58652 6.08879 3.02754e-05 8.02219 3.02754e-05 10C-0.00320724 11.3141 0.253241 12.6159 0.754641 13.8307C1.25604 15.0454 1.99251 16.1491 2.92174 17.0783C3.85097 18.0075 4.95465 18.744 6.16937 19.2454C7.38409 19.7468 8.6859 20.0032 10 20Z" fill="#2775CA"/>
<path d="M12.7499 11.5837C12.7499 10.1291 11.8754 9.62456 10.1254 9.41638C8.87449 9.25002 8.6254 8.91638 8.6254 8.33365C8.6254 7.75093 9.04176 7.37456 9.87449 7.37456C10.6254 7.37456 11.0418 7.62456 11.2499 8.25002C11.2723 8.31028 11.3126 8.36221 11.3655 8.3988C11.4183 8.43538 11.4811 8.45485 11.5454 8.45456H12.2118C12.2504 8.45556 12.2888 8.4487 12.3246 8.43439C12.3605 8.42007 12.393 8.39862 12.4203 8.37132C12.4476 8.34402 12.4691 8.31145 12.4834 8.27559C12.4977 8.23973 12.5046 8.20134 12.5036 8.16274V8.12183C12.4231 7.67023 12.1957 7.25786 11.8567 6.9488C11.5177 6.63974 11.0861 6.4513 10.629 6.41274V5.41274C10.629 5.24638 10.5036 5.12184 10.2954 5.08002H9.66994C9.50358 5.08002 9.37903 5.20456 9.33722 5.41274V6.37456C8.08358 6.54547 7.29176 7.37456 7.29176 8.41638C7.29176 9.79184 8.1254 10.3337 9.8754 10.5418C11.0418 10.75 11.4209 10.9964 11.4209 11.6664C11.4209 12.3364 10.8381 12.7918 10.0463 12.7918C8.96267 12.7918 8.59176 12.3373 8.46267 11.7082C8.45076 11.6379 8.41458 11.5741 8.36043 11.5277C8.30627 11.4814 8.23758 11.4555 8.16631 11.4546H7.45449C7.41593 11.4537 7.37759 11.4606 7.34179 11.475C7.306 11.4894 7.27348 11.5108 7.24621 11.5381C7.21893 11.5654 7.19747 11.5979 7.18311 11.6337C7.16875 11.6695 7.1618 11.7078 7.16267 11.7464V11.7882C7.32994 12.83 7.99631 13.58 9.37176 13.7882V14.7882C9.37176 14.9546 9.49631 15.08 9.70449 15.1218H10.3299C10.4963 15.1218 10.6218 14.9964 10.6627 14.7882V13.7882C11.9127 13.58 12.7463 12.7046 12.7463 11.58L12.7499 11.5837Z" fill="white"/>
<path d="M7.87459 15.9582C6.6757 15.5185 5.64072 14.7212 4.90957 13.6743C4.17842 12.6273 3.78634 11.3811 3.78634 10.1041C3.78634 8.82712 4.17842 7.58092 4.90957 6.53396C5.64072 5.487 6.6757 4.68976 7.87459 4.25002C7.95459 4.21543 8.02177 4.1567 8.06676 4.08205C8.11174 4.0074 8.13228 3.92055 8.1255 3.83366V3.25002C8.13111 3.17347 8.10878 3.09748 8.06264 3.03613C8.01651 2.97478 7.94969 2.93224 7.87459 2.91639C7.81594 2.91027 7.75701 2.92508 7.70823 2.95821C6.19133 3.44034 4.8672 4.39268 3.92751 5.67736C2.98782 6.96205 2.48132 8.51244 2.48132 10.1041C2.48132 11.6958 2.98782 13.2462 3.92751 14.5309C4.8672 15.8156 6.19133 16.7679 7.70823 17.25C7.74287 17.2702 7.78179 17.2818 7.82179 17.284C7.8618 17.2862 7.90175 17.2788 7.93838 17.2626C7.97501 17.2464 8.00728 17.2217 8.03253 17.1906C8.05779 17.1595 8.07531 17.1228 8.08368 17.0837C8.1255 17.0418 8.1255 17 8.1255 16.9164V16.3337C8.1255 16.2082 8.00004 16.0418 7.87459 15.9582ZM12.2919 2.95821C12.2572 2.93808 12.2182 2.92648 12.1781 2.92434C12.138 2.92221 12.0981 2.92961 12.0614 2.94594C12.0248 2.96226 11.9925 2.98705 11.9673 3.01826C11.9421 3.04947 11.9247 3.08622 11.9164 3.12548C11.8755 3.16639 11.8755 3.20821 11.8755 3.29184V3.87457C11.8825 3.9586 11.9087 4.03991 11.952 4.11224C11.9954 4.18457 12.0547 4.24601 12.1255 4.29184C13.3244 4.73158 14.3594 5.52881 15.0905 6.57578C15.8217 7.62274 16.2137 8.86894 16.2137 10.1459C16.2137 11.4229 15.8217 12.6691 15.0905 13.7161C14.3594 14.7631 13.3244 15.5603 12.1255 16C12.0456 16.0347 11.9785 16.0934 11.9337 16.1681C11.8889 16.2428 11.8685 16.3296 11.8755 16.4164V17C11.8698 17.0765 11.8921 17.1523 11.938 17.2137C11.984 17.275 12.0506 17.3176 12.1255 17.3337C12.1841 17.3398 12.2431 17.325 12.2919 17.2918C13.8082 16.803 15.1304 15.8459 16.0683 14.5581C17.0062 13.2703 17.5115 11.7182 17.5115 10.125C17.5115 8.53187 17.0062 6.97977 16.0683 5.69196C15.1304 4.40415 13.8082 3.44701 12.2919 2.95821Z" fill="white"/>
</g>
<defs>
<clipPath id="clip0_117_168">
<rect width="20" height="20" fill="white"/>
</clipPath>
</defs>
</svg>
