<svg width="24" height="16" viewBox="0 0 24 16" fill="none" xmlns="http://www.w3.org/2000/svg">
<path d="M13.6513 13.4974C13.8899 14.1987 14.4717 14.6609 15.1428 14.9146C15.7995 15.1683 16.545 15.1979 17.1865 15.0191C17.9622 14.795 18.6188 14.2881 19.0212 13.4677L23.7054 4.21839C23.944 3.72661 24.034 3.18956 23.9887 2.69723C23.9144 1.68293 23.2879 0.802759 22.3329 0.34004C21.5723 -0.0181764 20.7519 -0.0477948 20.036 0.175741C19.3196 0.414925 18.7233 0.936881 18.4249 1.66784L16.4108 6.66499L14.6354 1.60805C14.3224 0.996677 13.8005 0.533957 13.2036 0.265714C12.6068 -0.00308772 11.9356 -0.0774133 11.279 0.0863268C10.3988 0.310422 9.60863 0.832378 9.31021 1.66784L7.37104 6.66499L5.52128 1.60805C5.32736 1.2353 5.08818 0.936881 4.80485 0.683168C4.20856 0.19083 3.49213 -0.0327062 2.71646 0.0270897C1.94079 0.0863267 0.971204 0.48925 0.449248 1.32472C-0.0877971 2.17471 -0.162682 3.21918 0.329656 4.27818L4.71543 13.4974C5.19268 14.5117 6.07285 15.004 7.07262 15.1085C7.6689 15.1828 8.29592 15.0783 8.84749 14.795C9.38454 14.5117 9.84726 14.064 10.0859 13.4677L11.9356 8.75337L13.6513 13.4974Z" fill="url(#paint0_linear_24_170)"/>
<defs>
<linearGradient id="paint0_linear_24_170" x1="0" y1="7.56647" x2="24" y2="7.56647" gradientUnits="userSpaceOnUse">
<stop stop-color="#FF43D6"/>
<stop offset="1" stop-color="#A660FF"/>
</linearGradient>
</defs>
</svg>
