<svg width="60" height="60" viewBox="0 0 60 60" fill="none" xmlns="http://www.w3.org/2000/svg">
<rect width="60" height="60" rx="8" fill="#9B9B9B"/>
<path d="M11.3375 34.6748C11.5275 35.2373 11.995 35.6073 12.5325 35.8098C13.06 36.0148 13.6575 36.0373 14.17 35.8948C14.7925 35.7148 15.32 35.3098 15.6425 34.6498L19.3975 27.2373C19.5875 26.8423 19.66 26.4123 19.625 26.0173C19.565 25.2048 19.0625 24.4973 18.2975 24.1273C17.6875 23.8398 17.03 23.8173 16.455 23.9948C15.88 24.1873 15.4025 24.6048 15.1625 25.1923L13.55 29.1973L12.125 25.1448C11.875 24.6523 11.4575 24.2823 10.9775 24.0673C10.5 23.8523 9.96254 23.7923 9.43504 23.9248C8.73004 24.1023 8.09504 24.5223 7.85754 25.1923L6.30254 29.1973L4.82004 25.1448C4.66504 24.8448 4.47254 24.6048 4.24504 24.4023C3.76754 24.0073 3.19254 23.8273 2.57004 23.8773C1.95004 23.9248 1.17254 24.2473 0.752541 24.9173C0.322541 25.5973 0.262541 26.4348 0.657541 27.2848L4.17254 34.6748C4.55754 35.4873 5.26254 35.8823 6.06254 35.9673C6.54254 36.0273 7.04254 35.9423 7.48504 35.7148C7.91754 35.4873 8.28754 35.1298 8.47754 34.6498L9.96254 30.8723L11.3375 34.6748Z" fill="#C6AAFF"/>
<path d="M23.7619 23.7698C23.0794 23.7698 22.4444 24.0073 22.0019 24.4273C21.5594 24.8448 21.2744 25.4198 21.2744 26.1248C21.2744 26.8298 21.5844 27.3923 22.0744 27.8098C22.5519 28.2298 23.1994 28.4573 23.9044 28.4573H25.8644C25.6269 28.6348 25.3394 28.7798 25.0169 28.8998C24.6819 29.0298 24.3594 29.1748 24.0594 29.3423C23.4369 29.6873 22.9469 30.1898 22.9469 31.1123C22.9469 31.5298 23.1269 31.8998 23.4619 32.1748C23.7969 32.4623 24.2869 32.6423 24.9094 32.6423C25.2069 32.6423 25.5069 32.5348 25.8419 32.4273C26.1769 32.3198 26.5469 32.2123 27.0619 32.2123C27.4919 32.2123 27.8394 32.3798 28.0769 32.6548C28.3169 32.9298 28.4494 33.2998 28.4494 33.7173C28.4494 34.1373 28.2819 34.4948 28.0294 34.7698C27.7794 35.0573 27.4194 35.2248 27.0369 35.2248C26.3319 35.2248 25.8544 34.8073 25.3994 34.3523C24.9444 33.8973 24.5144 33.4198 23.9769 33.2398C23.4844 33.0598 22.9344 33.0973 22.4919 33.2873C21.7869 33.5873 21.2494 34.2573 21.2494 35.2723C21.2494 35.8948 21.5594 36.5998 22.0869 37.2698C22.6119 37.9398 23.3544 38.5723 24.2269 39.0398C25.0994 39.5073 26.0919 39.7923 27.1319 39.7923C28.6519 39.7923 30.1469 39.1823 31.2594 38.1298C32.3594 37.0898 33.0994 35.6198 33.0994 33.8848C33.0994 32.8698 32.8369 31.8298 32.3219 30.9673C31.7969 30.1198 31.0544 29.4498 30.0994 29.1498L31.7144 27.9548C32.2044 27.5823 32.4669 27.0923 32.5144 26.5673C32.5619 26.0398 32.4069 25.4798 32.1194 24.9998C31.6894 24.2948 30.9469 23.7698 30.1219 23.7698H23.7619Z" fill="#351A6B"/>
<path d="M35.6469 33.6223C35.6469 34.2798 35.8994 34.8673 36.3294 35.2848C36.7494 35.7148 37.3344 35.9673 37.9919 35.9673C38.6269 35.9673 39.2244 35.7148 39.6544 35.2848C40.0719 34.8673 40.3369 34.2798 40.3369 33.6223V29.9398C40.3369 29.7848 40.3469 29.6273 40.3594 29.4723C40.3844 29.1848 40.4444 28.9473 40.5869 28.7673C40.7194 28.5873 41.0044 28.4923 41.3394 28.4923C41.6644 28.4923 41.9869 28.5398 42.3219 28.5873C42.4769 28.6123 42.6444 28.6248 42.7994 28.6248C43.4094 28.6248 43.9469 28.3973 44.3419 27.9773C44.7369 27.5823 45.0119 27.0223 45.0119 26.4123C45.0119 25.5023 44.5569 24.8698 43.9119 24.4748C43.2669 24.0923 42.4294 23.9248 41.6744 23.9248C40.5619 23.9248 39.5119 24.3423 38.6019 25.0598C38.2194 24.2948 37.7294 23.9248 36.9519 23.9248C36.0794 23.9248 35.6469 24.3548 35.6469 25.2148V33.6223Z" fill="#C6AAFF"/>
<path d="M47.1384 33.6223C47.1384 34.2798 47.3909 34.8673 47.8209 35.2848C48.2409 35.7148 48.8259 35.9673 49.4834 35.9673C50.1184 35.9673 50.7159 35.7148 51.1459 35.2848C51.5634 34.8673 51.8284 34.2798 51.8284 33.6223V32.4973C51.8509 32.4873 51.8759 32.4623 51.9109 32.4398C51.9459 32.4273 51.9959 32.3898 52.0784 32.3423C52.1509 32.2948 52.2584 32.2223 52.3884 32.1273L52.9284 31.7323L55.0809 35.0098C55.5584 35.6198 56.2284 35.9423 56.8984 35.9423C57.5209 35.9423 58.0709 35.6798 58.4634 35.2848C58.8584 34.8898 59.0984 34.3523 59.1459 33.7898C59.1809 33.2273 59.0259 32.6648 58.5959 32.1873L56.5284 29.1273L57.9984 28.0498C58.5734 27.6323 58.9434 26.9623 58.9434 26.2323C58.9434 25.9098 58.8709 25.5973 58.7384 25.3223C58.4884 24.7623 58.0109 24.3548 57.4709 24.1273C57.1009 23.9848 56.7659 23.9123 56.3959 23.9598C55.9659 24.0198 55.5834 24.1748 55.2359 24.4148L51.8284 26.9023V22.4523C51.8284 21.8198 51.5634 21.2223 51.1459 20.8023C50.7159 20.3848 50.1184 20.1223 49.4834 20.1223C48.8259 20.1223 48.2409 20.3848 47.8209 20.8023C47.3909 21.2223 47.1384 21.8198 47.1384 22.4523V33.6223Z" fill="#C6AAFF"/>
</svg>
