<svg width="100" height="100" viewBox="0 0 100 100" fill="none" xmlns="http://www.w3.org/2000/svg">
<path d="M100 50.0002C100 65.8579 92.6181 79.9912 81.1026 89.1509C72.5658 95.9435 61.7588 100 50.0002 100C38.2416 100 27.4346 95.9435 18.8974 89.1509C7.38234 79.9912 0 65.8579 0 50.0002C0 22.3863 22.3868 0 50.0002 0C77.6137 0 100 22.3863 100 50.0002Z" fill="#F0F0F0"/>
<path d="M49.9997 65.9387C60.7318 65.9387 69.4319 57.2386 69.4319 46.5065C69.4319 35.7743 60.7318 27.0742 49.9997 27.0742C39.2675 27.0742 30.5674 35.7743 30.5674 46.5065C30.5674 57.2386 39.2675 65.9387 49.9997 65.9387Z" fill="white"/>
<path d="M81.1027 89.1509C72.5659 95.9435 61.7589 100 50.0003 100C38.2418 100 27.4348 95.9435 18.8975 89.1509C25.149 79.9671 36.7382 73.7993 50.0003 73.7993C63.2624 73.7993 74.8527 79.9657 81.1027 89.1509Z" fill="white"/>
<rect x="74.25" y="78.25" width="19.5" height="19.5" rx="9.75" fill="white"/>
<rect x="74.25" y="78.25" width="19.5" height="19.5" rx="9.75" stroke="#212121" stroke-width="0.5"/>
<path d="M87.75 91.75H80.25C80.0511 91.75 79.8603 91.671 79.7197 91.5303C79.579 91.3897 79.5 91.1989 79.5 91V85.75C79.5 85.5511 79.579 85.3603 79.7197 85.2197C79.8603 85.079 80.0511 85 80.25 85H81.75L82.5 83.875H85.5L86.25 85H87.75C87.9489 85 88.1397 85.079 88.2803 85.2197C88.421 85.3603 88.5 85.5511 88.5 85.75V91C88.5 91.1989 88.421 91.3897 88.2803 91.5303C88.1397 91.671 87.9489 91.75 87.75 91.75Z" stroke="#212121" stroke-width="0.8" stroke-linecap="round" stroke-linejoin="round"/>
<path d="M84 89.875C84.932 89.875 85.6875 89.1195 85.6875 88.1875C85.6875 87.2555 84.932 86.5 84 86.5C83.068 86.5 82.3125 87.2555 82.3125 88.1875C82.3125 89.1195 83.068 89.875 84 89.875Z" stroke="#212121" stroke-width="0.8" stroke-linecap="round" stroke-linejoin="round"/>
</svg>
