<svg width="140" height="122" viewBox="0 0 140 122" fill="none" xmlns="http://www.w3.org/2000/svg">
<path d="M13.4206 83.0742C12.5992 80.2863 13.3064 78.0218 15.5075 76.6136C18.1685 74.9104 21.096 73.9304 24.2866 75.9793C24.6989 74.939 25.1112 73.9494 25.4887 72.944C26.3736 70.597 27.2267 68.2373 28.1243 65.8935C28.6349 64.5614 28.5652 64.3552 27.3599 63.594C22.7801 60.6952 19.2659 56.8258 16.8523 51.9637C16.2751 50.7997 15.5202 49.7055 15.0762 48.4939C13.6997 44.7355 13.262 40.8249 13.6807 36.854C14.0581 33.2764 15.0477 29.8542 16.6779 26.6255C19.2088 21.6143 22.9577 17.7766 27.7183 14.8302C30.0971 13.3586 32.7612 12.7877 35.3746 12.0836C37.3093 11.5634 39.3392 11.3255 41.3437 11.1448C44.5216 10.8561 47.5886 11.5602 50.6239 12.4515C56.0378 14.0373 60.402 17.1772 64.043 21.3986C64.7535 22.2201 65.41 23.1113 65.9524 24.0501C66.4408 24.897 67.0085 25.2046 68.0044 25.1983C78.42 25.1602 88.8357 25.1729 99.2545 25.1729C108.941 25.1729 118.627 25.157 128.313 25.1824C131.139 25.1887 133.768 25.9214 135.884 27.8941C138.875 30.682 139.988 34.8273 138.751 38.7887C137.542 42.6613 134.653 44.6562 130.999 45.7441C130.105 46.0105 129.09 45.9122 128.132 45.9122C109.356 45.9217 90.5801 45.9185 71.804 45.9185C70.1104 45.9185 70.1865 45.9407 69.7044 47.5963C68.5943 51.4245 66.6945 54.853 64.1604 57.9168C61.5057 61.1265 58.2421 63.594 54.5028 65.3892C53.269 65.9823 51.8767 66.2487 50.5477 66.6325C47.503 67.5173 44.4075 68.0121 41.2231 67.7616C40.703 67.7203 40.3985 67.8726 40.1955 68.4339C39.2092 71.1679 38.1657 73.8828 37.1412 76.6041C36.8939 77.2638 37.0176 77.6571 37.8263 77.5365C40.8108 77.0925 42.3776 79.3348 42.533 81.888C42.6757 84.216 41.8575 86.322 41.1248 88.4406C39.7547 92.4147 40.4302 96.0113 43.0785 99.221C43.5131 99.7475 44.2235 100.128 44.88 100.375C45.7681 100.708 46.1423 101.292 46.3644 102.164C47.3951 106.202 45.8918 109.668 43.881 112.97C42.4537 115.311 40.8394 117.543 38.7112 119.332C36.472 121.216 33.9569 122.266 30.9534 121.946C29.1614 121.755 27.6422 120.928 26.2943 119.884C22.9387 117.283 19.12 115.641 15.2284 114.08C11.4288 112.558 7.60067 111.035 4.64153 108.035C2.49751 105.862 0.873635 103.357 0.109271 100.366C-0.353787 98.5518 0.68968 97.0611 2.57997 96.8359C3.2143 96.7598 3.20478 96.5124 2.9796 96.0525C1.75852 93.5755 3.02083 90.8606 5.64694 90.5339C6.6238 90.4134 6.48108 89.833 6.31933 89.1637C5.74843 86.8072 6.78556 84.308 8.97398 83.3501C9.91596 82.9378 11.0926 83.0488 12.1678 82.9568C12.5135 82.9251 12.8687 83.0171 13.4206 83.0742ZM8.16839 102.006C8.0447 101.695 7.93052 101.555 7.95272 101.447C8.13984 100.597 7.50869 100.334 6.96 99.9853C6.51597 99.7031 6.12586 99.3288 5.66597 99.0783C4.82866 98.6215 3.99452 98.1204 3.09695 97.8286C1.75852 97.3941 0.899008 98.0855 0.851433 99.5001C0.838747 99.8299 0.851433 100.172 0.933896 100.486C1.70143 103.534 3.4046 106.005 5.70403 108.086C8.5807 110.683 12.1298 112.085 15.6408 113.519C19.3389 115.028 22.8594 116.855 26.2911 118.891C27.7532 119.76 29.2597 120.737 30.8741 121.131C33.5478 121.781 35.9487 120.728 38.0261 119.002C40.5888 116.874 42.3713 114.128 44.0459 111.305C45.6222 108.65 46.247 105.805 45.7617 102.729C45.6285 101.885 45.3463 101.298 44.4709 100.927C43.7065 100.604 42.9422 100.087 42.4062 99.4589C39.9133 96.5409 39.1616 93.16 40.1099 89.4492C40.5508 87.7238 41.1534 86.0365 41.6418 84.3206C42.0446 82.9093 42.0414 81.5106 41.3849 80.15C40.6935 78.7196 39.4534 78.0123 37.8295 78.1645C36.5196 78.2882 35.7743 79.0209 35.3556 80.6257C34.8482 82.5731 34.0267 84.3968 32.7105 85.9033C31.851 86.8897 30.6997 87.6223 29.6816 88.4691C29.5769 88.3772 29.4691 88.282 29.3644 88.19C29.4659 87.9553 29.5579 87.7143 29.6752 87.4859C29.7989 87.2512 29.948 87.0292 30.0844 86.804C29.8306 86.674 29.5864 86.4964 29.3168 86.4266C28.968 86.3346 28.5937 86.3442 28.2353 86.2775C26.5734 85.9699 24.9051 85.7067 23.4588 84.7234C21.9618 83.7085 21.4575 82.2496 22.1585 80.5876C22.5422 79.6806 23.0941 78.8401 23.4493 77.9235C23.9029 76.7531 23.4937 76.1854 22.3519 75.7287C20.0208 74.7931 15.6947 76.7531 14.5783 78.5134C13.7061 79.8899 13.4999 81.3806 14.2294 82.7634C15.1777 84.5649 16.5954 86.008 18.4952 86.9087C19.1962 87.2417 19.8241 87.5018 20.4077 86.7311C20.7312 87.5557 20.0652 88.8053 19.3611 89.0464C19.1581 88.6372 19.0598 88.1234 18.7521 87.8792C17.4105 86.8199 15.9801 85.8747 14.6385 84.8186C13.3445 83.7973 11.9268 83.3121 10.2966 83.569C8.68219 83.8227 7.71485 84.9074 7.21373 86.341C6.78556 87.5652 6.56037 88.929 7.56895 90.0074C8.58387 91.0889 9.72883 92.0468 10.8262 93.049C11.4383 93.6072 12.06 94.1686 12.9671 93.3439C13.0305 93.4328 13.0939 93.5216 13.1574 93.6072C12.707 94.4445 12.2566 95.2818 11.8063 96.1191C11.6826 96.0684 11.5589 96.0145 11.4352 95.9637C11.5335 95.5451 11.6318 95.1296 11.7143 94.7712C10.601 93.807 9.52902 92.8333 8.40943 91.9199C7.22324 90.9525 5.47567 91.0096 4.27997 91.996C3.07792 92.9855 2.82736 94.2415 3.63295 95.7195C4.54321 97.3909 5.97362 98.5518 7.58164 99.5223C8.1335 99.8553 8.48555 99.7221 8.84395 99.2495C9.0723 98.945 9.37044 98.6913 9.63686 98.4154C9.72249 98.4788 9.8113 98.5423 9.89693 98.6057C9.37044 99.6206 8.85663 100.639 8.16839 102.006ZM97.7607 34.9225C97.7353 35.043 97.7099 35.1667 97.6845 35.2872C97.4689 35.3063 97.2532 35.3253 97.0344 35.3411C94.2972 35.5378 91.5506 35.652 88.8262 35.9501C85.664 36.2958 82.5241 36.8826 79.3303 36.2895C76.8501 35.8296 74.4016 35.8423 72.0038 36.7874C71.2458 37.0855 70.8494 37.3995 70.8557 38.332C70.8716 40.2159 70.7637 42.1062 70.5671 43.9807C70.4466 45.132 70.437 45.2715 71.6042 45.2715C90.6784 45.2747 109.753 45.2842 128.824 45.243C130.026 45.2398 131.329 45.078 132.411 44.5991C137.964 42.1411 140.235 36.2324 137.339 30.8311C135.678 27.7356 132.845 25.8833 129.379 25.8675C109.112 25.7596 88.8452 25.8104 68.5753 25.8167C68.201 25.8167 67.8268 25.9024 67.424 25.9531C67.4621 26.2417 67.4367 26.432 67.5128 26.5621C67.9061 27.2344 68.477 27.8402 68.7085 28.5602C69.438 30.8216 70.0755 33.1115 70.6813 35.4109C70.8589 36.0833 71.1348 36.318 71.785 36.1214C72.4479 35.9215 73.1044 35.5822 73.7736 35.56C75.7527 35.4997 77.7318 35.6012 79.7141 35.5758C82.5241 35.5378 85.3374 35.5156 88.1411 35.3443C90.9131 35.173 93.6724 34.802 96.4413 34.5736C96.8694 34.5324 97.3198 34.7988 97.7607 34.9225ZM39.3328 30.7613C39.4565 30.7486 39.5802 30.7391 39.7039 30.7264C39.7737 31.1324 39.8784 31.532 39.9101 31.9412C40.1543 34.8464 41.22 37.3012 43.6494 39.0678C45.0608 40.0954 47.5854 40.3111 48.6479 39.2676C49.9578 37.9831 51.1694 36.5939 52.3841 35.2143C52.5617 35.0113 52.5808 34.6117 52.5649 34.3072C52.492 32.9244 52.3619 31.5415 52.2858 30.1587C52.2509 29.5085 52.4983 28.8234 53.1961 28.871C53.6623 28.9027 54.2332 29.3848 54.5123 29.8225C55.2988 31.0531 54.5852 32.2329 54.2141 33.4191C54.0429 33.9647 53.7003 34.6719 53.897 35.0811C55.0293 37.4154 56.9195 38.9695 59.3649 39.8068C59.9389 40.0034 60.4654 39.81 60.3481 39.0297C60.1229 37.5264 60.0182 35.9786 59.5742 34.5419C59.2031 33.3494 58.3975 32.2964 57.8108 31.1673C55.1054 25.9753 50.7032 22.9305 45.083 22.0266C40.2304 21.2464 35.511 22.2391 31.426 25.2141C29.4088 26.6826 27.6708 28.3572 27.0174 30.9865C25.9612 35.2555 26.6273 39.1312 29.209 42.6518C31.889 46.3086 35.7235 47.7517 40.0845 47.8279C45.822 47.9293 51.5627 47.8501 57.3001 47.8659C58.0328 47.8691 58.5593 47.5709 58.7559 46.9081C59.2697 45.17 59.7296 43.4129 60.1863 41.659C60.3639 40.9835 59.9516 40.6853 59.3522 40.5616C57.5253 40.1874 56.1044 39.1376 54.8612 37.815C54.2554 37.1712 53.7099 36.4734 53.1517 35.8201C52.1177 36.9492 51.1282 38.0021 50.1671 39.0837C48.242 41.2499 45.3145 40.7329 43.4433 39.6355C40.5666 37.9482 39.5612 35.1889 39.2345 32.0775C39.1901 31.643 39.2948 31.199 39.3328 30.7613ZM25.882 32.7245C22.0411 39.7941 25.1334 50.0226 33.811 55.0401C41.8638 59.6993 53.7003 56.4166 57.6141 48.6905C57.1225 48.6398 56.6848 48.5573 56.2503 48.5542C51.2138 48.5446 46.1741 48.5193 41.1375 48.5605C38.9015 48.5795 36.7289 48.4527 34.6198 47.5741C31.2769 46.1818 28.7364 43.9648 27.1696 40.6885C25.9993 38.2527 25.606 35.6615 25.882 32.7245ZM30.817 80.8097C32.6661 77.546 33.903 74.0128 35.4698 70.3401C34.4485 70.8095 30.5601 79.6171 30.817 80.8097ZM52.9265 33.0798C54.0334 32.9783 53.9572 32.29 53.9668 31.8016C53.9826 31.1419 53.9794 30.3871 53.6813 29.8447C53.4625 29.4451 52.955 29.7527 52.936 30.2634C52.9043 31.1641 52.9265 32.0712 52.9265 33.0798Z" fill="black"/>
<path d="M113.989 55.65C106.862 55.65 99.7355 55.6436 92.6089 55.6531C90.357 55.6563 88.102 55.7324 85.8501 55.7134C85.4949 55.7102 85.146 55.3677 84.7939 55.1806C85.1714 55.0029 85.5488 54.6699 85.9231 54.6699C95.2667 54.708 104.607 54.7873 113.951 54.838C114.839 54.8444 115.73 54.6541 116.615 54.6763C116.948 54.6858 117.271 55.0442 117.601 55.244C117.294 55.4089 116.992 55.6912 116.675 55.7134C115.784 55.7768 114.886 55.7356 113.992 55.7356C113.989 55.707 113.989 55.6785 113.989 55.65Z" fill="black"/>
<path d="M85.893 73.3213C95.7695 73.3213 105.646 73.3213 115.522 73.3213C115.646 73.4704 115.773 73.6163 115.897 73.7653C115.649 73.8319 115.405 73.9239 115.155 73.962C114.86 74.0064 114.561 74.0191 114.263 74.0191C105.272 74.0222 96.2833 74.0254 87.2917 74.0095C86.8096 74.0095 86.3307 73.8383 85.8486 73.7495C85.8645 73.6067 85.8772 73.464 85.893 73.3213Z" fill="black"/>
<path d="M91.6025 64.1909C92.4145 63.6263 123.801 63.6675 124.48 64.1782C123.782 64.5778 92.5477 64.6317 91.6025 64.1909Z" fill="black"/>
<path d="M27.8973 9.2802C27.7261 9.06135 27.4565 8.86788 27.393 8.6205C26.8095 6.32423 26.0292 4.01211 27.1964 1.67779C27.4692 1.13544 27.9005 0.650185 28.3477 0.228358C28.5507 0.0412312 28.9662 0.0729475 29.3151 0C28.668 0.992721 27.91 1.75074 27.6531 2.65148C27.3582 3.68226 27.4026 4.84943 27.4945 5.94047C27.5707 6.84438 27.9386 7.72292 28.1574 8.61732C28.1986 8.79176 28.1447 8.98841 28.1352 9.17236C28.0559 9.20725 27.9766 9.24531 27.8973 9.2802Z" fill="black"/>
<path d="M9.51074 12.0137C11.0617 10.6531 17.7284 12.204 19.7868 14.2275C19.3016 14.1704 19.0066 14.1863 18.7465 14.0943C17.2971 13.5774 15.8857 12.9018 14.4014 12.5434C13.1105 12.2326 11.7341 12.2738 10.3956 12.1533C10.1673 12.1343 9.94208 12.0835 9.51074 12.0137Z" fill="black"/>
<path d="M20.9801 8.76953C21.2275 8.85834 21.5193 8.89005 21.7191 9.04546C22.2646 9.47046 22.7847 9.93352 23.2827 10.4156C23.4096 10.5393 23.4127 10.793 23.473 10.9865C23.2668 10.9928 22.9877 11.0943 22.8704 10.996C22.1536 10.3902 21.4749 9.74005 20.7803 9.10572C20.8437 8.99155 20.9103 8.88054 20.9801 8.76953Z" fill="black"/>
<path d="M124.439 56.1417C123.865 56.1417 123.288 56.1417 122.396 56.1417C122.771 55.8023 122.948 55.5105 123.129 55.5074C123.589 55.4979 124.049 55.6184 124.509 55.6882C124.487 55.8372 124.461 55.9895 124.439 56.1417Z" fill="black"/>
<path d="M122.46 73.3506C123.234 73.3506 123.862 73.3506 124.563 73.3506C123.944 74.0959 123.262 74.1149 122.46 73.3506Z" fill="black"/>
<path d="M86.6487 64.9009C85.9764 64.9009 85.304 64.9009 84.6284 64.9009C84.6252 64.7931 84.6252 64.6821 84.6221 64.5742C85.2976 64.5742 85.9732 64.5742 86.6519 64.5742C86.6487 64.6821 86.6487 64.7899 86.6487 64.9009Z" fill="black"/>
<path d="M8.16903 102.006C8.86045 100.639 9.37426 99.6211 9.88806 98.603C9.80243 98.5396 9.71362 98.4762 9.62799 98.4127C9.36157 98.6887 9.06344 98.9424 8.83508 99.2469C8.47986 99.7195 8.12463 99.8495 7.57277 99.5196C5.96475 98.5491 4.53752 97.3883 3.62409 95.7169C2.81849 94.2389 3.07222 92.9829 4.2711 91.9933C5.4668 91.007 7.21437 90.9499 8.40056 91.9172C9.52015 92.8307 10.589 93.8012 11.7054 94.7685C11.6229 95.1269 11.5246 95.5424 11.4263 95.9611C11.55 96.0118 11.6737 96.0657 11.7974 96.1165C12.2478 95.2792 12.6981 94.4419 13.1485 93.6045C13.0851 93.5157 13.0216 93.4269 12.9582 93.3413C12.0511 94.1659 11.4263 93.6045 10.8173 93.0463C9.71996 92.0441 8.575 91.0863 7.56008 90.0047C6.5515 88.9264 6.77669 87.5658 7.20486 86.3383C7.70598 84.9016 8.67332 83.8201 10.2877 83.5663C11.9179 83.3094 13.3356 83.7947 14.6296 84.816C15.9712 85.8753 17.4048 86.8173 18.7433 87.8766C19.0509 88.1208 19.1492 88.6346 19.3522 89.0437C20.0563 88.8027 20.7224 87.5531 20.3988 86.7284C19.8121 87.5023 19.1873 87.2391 18.4864 86.9061C16.5865 86.0021 15.1688 84.5622 14.2205 82.7607C13.491 81.3779 13.6972 79.8872 14.5694 78.5107C15.6858 76.7505 20.0119 74.7936 22.3431 75.7261C23.4848 76.1828 23.894 76.7537 23.4404 77.9208C23.0852 78.8374 22.5334 79.6779 22.1496 80.585C21.4487 82.2469 21.9529 83.709 23.45 84.7208C24.8994 85.7008 26.5677 85.9672 28.2264 86.2749C28.5848 86.3415 28.9591 86.332 29.308 86.424C29.5776 86.4937 29.8186 86.6714 30.0755 86.8014C29.9391 87.0297 29.7869 87.2486 29.6664 87.4833C29.549 87.7116 29.457 87.9527 29.3555 88.1874C29.4602 88.2794 29.568 88.3745 29.6727 88.4665C30.694 87.6197 31.8421 86.887 32.7016 85.9006C34.0147 84.3941 34.8393 82.5736 35.3468 80.6231C35.7654 79.0182 36.5107 78.2856 37.8206 78.1619C39.4445 78.0096 40.6846 78.7169 41.376 80.1473C42.0326 81.5079 42.0357 82.9066 41.6329 84.318C41.1445 86.0339 40.5419 87.718 40.101 89.4465C39.1527 93.1605 39.9044 96.5383 42.3973 99.4562C42.9333 100.084 43.6977 100.601 44.462 100.925C45.3374 101.296 45.6197 101.883 45.7529 102.726C46.2413 105.803 45.6133 108.648 44.037 111.302C42.3624 114.125 40.5799 116.872 38.0173 119C35.9398 120.725 33.5389 121.775 30.8652 121.128C29.2509 120.735 27.7443 119.758 26.2822 118.889C22.8537 116.853 19.33 115.026 15.6319 113.516C12.1209 112.082 8.57183 110.681 5.69516 108.083C3.39256 106.002 1.69256 103.532 0.925027 100.484C0.845737 100.167 0.83305 99.8241 0.842565 99.4974C0.893311 98.0829 1.74965 97.3915 3.08808 97.826C3.98565 98.1178 4.82296 98.6189 5.6571 99.0756C6.11699 99.3262 6.5071 99.7004 6.95113 99.9827C7.49982 100.332 8.13098 100.595 7.94385 101.445C7.92799 101.559 8.04534 101.699 8.16903 102.006Z" fill="white"/>
<path d="M97.7615 34.9233C97.3206 34.7964 96.8702 34.5332 96.4421 34.5681C93.6732 34.7964 90.9139 35.1675 88.1419 35.3388C85.3382 35.5132 82.5249 35.5322 79.7149 35.5703C77.7358 35.5988 75.7535 35.4942 73.7744 35.5544C73.1052 35.5735 72.4487 35.916 71.7858 36.1158C71.1356 36.3125 70.8597 36.0809 70.6821 35.4054C70.0763 33.1059 69.4388 30.816 68.7093 28.5546C68.4778 27.8347 67.9069 27.2289 67.5136 26.5565C67.4375 26.4265 67.4629 26.2362 67.4248 25.9476C67.8276 25.8968 68.2019 25.8112 68.5761 25.8112C88.8428 25.808 109.113 25.7541 129.379 25.8619C132.846 25.881 135.681 27.73 137.34 30.8255C140.239 36.2268 137.965 42.1356 132.412 44.5936C131.33 45.0725 130.026 45.2343 128.824 45.2374C109.75 45.2755 90.6792 45.2692 71.605 45.266C70.441 45.266 70.4474 45.1264 70.5679 43.9751C70.7614 42.1007 70.8692 40.2104 70.8565 38.3264C70.8502 37.394 71.2466 37.08 72.0046 36.7819C74.4056 35.8367 76.8509 35.824 79.3311 36.2839C82.5249 36.877 85.6649 36.2903 88.827 35.9446C91.5514 35.6464 94.298 35.5322 97.0352 35.3356C97.2508 35.3197 97.4697 35.3007 97.6853 35.2817C97.7107 35.1675 97.7361 35.0438 97.7615 34.9233ZM130.369 35.8589C130.366 33.8322 128.457 31.9388 126.408 31.9229C124.394 31.9071 122.386 33.8069 122.484 35.8621C122.602 38.2979 123.931 39.8139 126.42 39.8266C128.755 39.8361 130.198 38.3391 130.369 35.8589ZM113.975 35.2912C113.991 35.2912 114.01 35.2912 114.026 35.2912C114.026 37.5716 114 39.852 114.045 42.1324C114.054 42.6177 114.314 43.5089 114.47 43.5121C115.38 43.5279 115.034 42.7223 115.037 42.2561C115.069 37.5938 115.056 32.9347 115.053 28.2724C115.053 28.0091 115.088 27.7237 115.002 27.4858C114.926 27.2828 114.688 26.9974 114.536 27.0069C114.352 27.0196 114.137 27.2733 114.026 27.4731C113.937 27.6285 113.975 27.8601 113.975 28.0567C113.972 30.4671 113.975 32.8808 113.975 35.2912Z" fill="white"/>
<path d="M39.3342 30.7614C39.2962 31.1991 39.1915 31.6431 39.2359 32.0744C39.5626 35.189 40.5712 37.9451 43.4447 39.6324C45.3191 40.733 48.2434 41.2468 50.1685 39.0806C51.1295 37.999 52.1191 36.9461 53.153 35.817C53.7113 36.4735 54.2599 37.1712 54.8626 37.8119C56.1058 39.1345 57.5267 40.1843 59.3536 40.5585C59.953 40.6822 60.3622 40.9772 60.1877 41.6559C59.731 43.4098 59.2711 45.1669 58.7573 46.905C58.5607 47.5679 58.0342 47.866 57.3015 47.8628C51.5641 47.847 45.8234 47.9262 40.0859 47.8248C35.7249 47.7486 31.8904 46.3055 29.2104 42.6487C26.6319 39.1281 25.9626 35.2524 27.0188 30.9834C27.669 28.3541 29.4102 26.6795 31.4274 25.211C35.5124 22.2392 40.2318 21.2433 45.0844 22.0235C50.7045 22.9274 55.1068 25.9722 57.8122 31.1642C58.3989 32.2933 59.2077 33.3463 59.5756 34.5388C60.0228 35.9755 60.1275 37.5233 60.3495 39.0267C60.4668 39.8069 59.9403 40.0035 59.3663 39.8037C56.9209 38.9632 55.0306 37.4091 53.8984 35.078C53.6986 34.6688 54.0443 33.9616 54.2155 33.416C54.5898 32.2298 55.3002 31.05 54.5137 29.8194C54.2346 29.3817 53.6637 28.8996 53.1974 28.8679C52.4997 28.8203 52.2523 29.5054 52.2872 30.1556C52.3633 31.5384 52.4902 32.9213 52.5663 34.3041C52.5821 34.6086 52.5631 35.0082 52.3855 35.2112C51.1708 36.5908 49.9592 37.98 48.6493 39.2645C47.5837 40.308 45.0622 40.0891 43.6508 39.0647C41.2214 37.2981 40.1557 34.8401 39.9115 31.9381C39.8766 31.5289 39.7751 31.1293 39.7053 30.7233C39.5816 30.7392 39.4579 30.7487 39.3342 30.7614Z" fill="white"/>
<path d="M25.8821 32.7246C25.6062 35.6615 25.9994 38.2528 27.1698 40.6918C28.7366 43.9649 31.277 46.185 34.6199 47.5774C36.7291 48.4559 38.9016 48.5828 41.1376 48.5637C46.1742 48.5225 51.2139 48.5479 56.2505 48.5574C56.6882 48.5574 57.1227 48.643 57.6143 48.6938C53.7005 56.4167 41.864 59.7025 33.8112 55.0434C25.1304 50.0227 22.0412 39.7942 25.8821 32.7246Z" fill="white"/>
<path d="M30.8178 80.8104C30.5609 79.6178 34.4493 70.8134 35.4706 70.3408C33.9038 74.0136 32.6669 77.5468 30.8178 80.8104Z" fill="white"/>
<path d="M52.9275 33.08C52.9275 32.0746 52.9053 31.1675 52.937 30.2604C52.956 29.7466 53.4635 29.4421 53.6823 29.8418C53.9805 30.3873 53.9836 31.139 53.9678 31.7987C53.9583 32.2903 54.0344 32.9785 52.9275 33.08Z" fill="white"/>
<path d="M130.369 35.8589C130.197 38.3392 128.754 39.8393 126.42 39.8267C123.93 39.8171 122.601 38.2979 122.484 35.8621C122.386 33.8069 124.396 31.9071 126.407 31.923C128.459 31.9388 130.365 33.8323 130.369 35.8589Z" fill="black"/>
<path d="M113.976 35.2904C113.976 32.88 113.976 30.4695 113.979 28.0559C113.979 27.8593 113.941 27.6277 114.03 27.4723C114.144 27.2725 114.356 27.0188 114.54 27.0061C114.689 26.9966 114.93 27.282 115.006 27.485C115.095 27.7197 115.057 28.0052 115.057 28.2716C115.06 32.9339 115.07 37.593 115.041 42.2553C115.038 42.7215 115.384 43.5271 114.474 43.5113C114.318 43.5081 114.058 42.6169 114.049 42.1316C114.004 39.8512 114.03 37.5708 114.03 35.2904C114.011 35.2904 113.991 35.2904 113.976 35.2904Z" fill="black"/>
</svg>
