<svg width="133" height="122" viewBox="0 0 133 122" fill="none" xmlns="http://www.w3.org/2000/svg">
<g clip-path="url(#clip0_86_13241)">
<path d="M0 56.6471C4.09355 57.443 7.98547 58.1991 11.8774 58.9525C15.1644 59.5892 18.4515 60.2127 21.7359 60.86C25.0123 61.5073 28.2834 62.1865 31.5625 62.8285C33.8467 63.2742 36.1389 63.6775 38.4284 64.1046C39.7655 64.354 41.1159 64.5556 42.4344 64.8899C43.8564 65.2533 43.9175 65.2587 43.8936 63.7279C43.8379 59.8386 43.8007 55.9467 43.7052 52.0574C43.3869 39.1082 43.042 26.159 42.7104 13.2098C42.6599 11.2705 42.6759 11.3235 44.6046 11.0821C50.8311 10.3021 57.0497 9.47177 63.2736 8.67587C69.6726 7.85875 76.0742 7.07347 82.4732 6.25105C88.8271 5.43658 95.1757 4.59293 101.53 3.77051C106.085 3.18155 110.643 2.6032 115.2 2.02219C120.459 1.35099 125.717 0.679785 130.975 0.0165402C131.272 -0.0206016 131.577 0.0112342 132.092 0.0112342C132.092 0.687744 132.113 1.33242 132.089 1.97444C131.41 20.3092 130.723 38.644 130.049 56.9787C129.657 67.6702 129.282 78.3617 128.9 89.0533C128.847 90.5389 128.643 90.6344 127.229 90.3293C123.305 89.4804 119.371 88.6818 115.437 87.878C110.425 86.8539 105.411 85.8352 100.394 84.8244C95.6373 83.864 90.8752 82.9196 86.1184 81.9618C81.1865 80.967 76.2573 79.9615 71.3254 78.9666C70.5163 78.8021 69.6965 78.6801 68.5822 78.4864C68.882 80.0809 69.0996 81.4445 69.3993 82.7922C69.8795 84.9438 70.3863 87.09 70.9513 89.223C71.0389 89.552 71.4528 89.9526 71.7844 90.0375C76.9577 91.3322 82.1469 92.5631 87.3255 93.8419C91.9868 94.9933 96.6375 96.1898 101.296 97.3597C105.103 98.3148 108.913 99.2593 112.72 100.214C112.969 100.275 113.203 100.389 113.42 100.469C113.444 100.612 113.476 100.697 113.468 100.777C113.083 104.345 110.966 106.154 107.735 107.621C98.1099 111.988 88.6016 116.628 79.1862 121.436C76.8224 122.643 75.0263 121.587 73.0684 121.144C67.5237 119.886 62.0294 118.408 56.5165 117.008C51.2185 115.663 45.9231 114.294 40.6225 112.954C33.9476 111.264 27.27 109.59 20.5924 107.913C18.1517 107.3 15.7057 106.698 13.2623 106.101C12.4106 105.894 11.9862 105.438 11.7607 104.52C8.8079 92.5631 5.79942 80.6194 2.80685 68.673C1.90749 65.0756 1.01079 61.4782 0.127343 57.8781C0.0397947 57.5517 0.0504066 57.1989 0 56.6471ZM128.15 89.674C128.208 89.0267 128.256 88.6818 128.269 88.3343C128.691 75.8785 129.097 63.4201 129.534 50.9644C129.76 44.515 130.044 38.0709 130.288 31.6215C130.503 25.8805 130.686 20.1367 130.911 14.3957C130.946 13.4963 130.723 13.0825 129.728 13.2045C128.457 13.3584 127.171 13.369 125.897 13.4937C119.392 14.1251 112.89 14.7936 106.385 15.4065C99.6566 16.0432 92.9233 16.6189 86.1927 17.2477C76.9099 18.1125 67.6272 18.996 58.347 19.8768C53.8608 20.3012 49.3773 20.7602 44.8858 21.1608C43.8671 21.251 43.5354 21.6887 43.5858 22.6916C43.7105 25.119 43.7636 27.5492 43.8166 29.982C44.0687 41.2067 44.326 52.4315 44.5409 63.6563C44.5648 64.8819 44.9548 65.447 46.2256 65.6778C52.6537 66.8531 59.058 68.1451 65.4835 69.3336C66.3856 69.5008 66.7702 69.8908 66.9294 70.7291C67.3088 72.7242 67.6696 74.7245 68.1816 76.6877C68.3143 77.1997 68.9059 77.855 69.3967 77.9691C72.315 78.6403 75.2677 79.1682 78.2099 79.7519C81.1918 80.3435 84.1738 80.9457 87.1531 81.5453C90.4295 82.2059 93.706 82.8718 96.985 83.5297C99.1419 83.9648 101.299 84.384 103.456 84.8244C106.599 85.4638 109.741 86.1164 112.884 86.7531C116.243 87.4349 119.602 88.1194 122.968 88.7747C124.64 89.0957 126.324 89.3583 128.15 89.674ZM77.2628 121.457C76.5226 118.024 75.8726 114.965 75.2067 111.911C74.2012 107.303 73.1692 102.7 72.1717 98.0893C71.5403 95.1657 70.962 92.2342 70.3491 89.3079C69.9459 87.3766 69.5347 85.4478 69.1049 83.5218C68.6486 81.4763 68.1631 79.4388 67.6935 77.396C67.2 75.2577 66.749 73.1088 66.1813 70.9918C66.0778 70.6018 65.5472 70.1295 65.1413 70.0473C57.9995 68.6041 50.847 67.2086 43.6973 65.8158C30.9497 63.3326 18.2021 60.8521 5.45453 58.3768C4.00866 58.0956 2.55482 57.8568 0.915279 57.565C1.03732 58.3025 1.08242 58.7774 1.19649 59.2364C4.92659 74.1435 8.66994 89.0453 12.3815 103.958C12.5911 104.799 12.9651 105.255 13.8008 105.454C15.9073 105.953 18.0005 106.502 20.0963 107.035C29.5542 109.439 39.0094 111.85 48.47 114.249C56.1716 116.201 63.8758 118.141 71.5827 120.08C73.3576 120.526 75.1457 120.945 77.2628 121.457ZM76.8834 117.055C88.6467 111.604 100.131 106.401 111.449 100.814C111.205 100.509 111.056 100.413 110.892 100.371C102.461 98.2909 94.0296 96.2083 85.5905 94.1576C85.1634 94.0541 84.6222 94.1231 84.2109 94.2929C82.383 95.0463 80.6002 95.9245 78.7564 96.6328C78.1807 96.853 77.4193 96.8318 76.8091 96.6646C75.3234 96.2614 73.8802 95.7096 72.1691 95.1312C73.7768 102.613 75.3049 109.712 76.8834 117.055ZM71.5881 90.653C71.2697 93.1892 71.8693 94.2053 73.9412 94.919C74.1084 94.9774 74.2835 95.0278 74.4268 95.1233C77.5334 97.2005 80.1572 95.4284 82.8208 94.0568C82.9216 94.0037 82.9189 93.7517 82.9959 93.4784C79.1809 92.534 75.4322 91.6054 71.5881 90.653ZM62.2496 13.9606C62.3345 13.8863 62.4193 13.8094 62.5069 13.7351C62.0453 13.1461 61.5837 12.5598 61.122 11.9709C60.7878 12.6262 60.3978 13.2602 60.1457 13.9447C60.037 14.2365 60.1113 14.6928 60.2784 14.9661C60.5066 15.3349 60.87 15.754 61.2467 15.8416C61.4563 15.8893 61.8808 15.3455 62.0771 14.9926C62.2363 14.7061 62.1992 14.3081 62.2496 13.9606ZM55.7498 14.9316C55.1794 14.1331 54.7204 13.4884 54.2614 12.8464C53.9165 13.5441 53.2931 14.2498 53.3037 14.9422C53.3143 15.6108 53.9829 16.2661 54.3622 16.9266C54.7788 16.3271 55.1953 15.7328 55.7498 14.9316ZM46.7349 15.5259C46.8304 15.6055 46.9259 15.6824 47.0241 15.762C47.0506 16.0246 46.9976 16.3377 47.1223 16.542C47.3716 16.9532 47.7165 17.306 48.0243 17.6827C48.3294 17.3564 48.6689 17.0566 48.9236 16.6932C49.0642 16.4916 49.1836 16.144 49.104 15.9397C48.8281 15.2181 48.462 14.5283 48.1304 13.828C47.6635 14.393 47.1992 14.9581 46.7349 15.5259Z" fill="black"/>
<path d="M128.148 89.673C126.323 89.3573 124.636 89.0947 122.965 88.7683C119.601 88.1131 116.242 87.4286 112.881 86.7468C109.737 86.1101 106.596 85.4548 103.452 84.8181C101.298 84.3803 99.1381 83.9585 96.9813 83.5234C93.7048 82.8628 90.4284 82.1969 87.1493 81.539C84.1674 80.9394 81.1881 80.3372 78.2061 79.7456C75.2666 79.1619 72.3138 78.6339 69.3929 77.9627C68.9021 77.8487 68.3131 77.1934 68.1778 76.6814C67.6658 74.7208 67.305 72.7178 66.9256 70.7228C66.7665 69.8818 66.3818 69.4944 65.4798 69.3273C59.0542 68.1388 52.6499 66.8468 46.2218 65.6715C44.951 65.438 44.5584 64.8729 44.5371 63.6499C44.3222 52.4251 44.0649 41.2004 43.8129 29.9756C43.7571 27.5455 43.7041 25.1127 43.5821 22.6852C43.5316 21.6824 43.8633 21.2447 44.882 21.1545C49.3709 20.7539 53.8544 20.2975 58.3432 19.8704C67.626 18.9896 76.9062 18.1062 86.1889 17.2413C92.9169 16.6152 99.6528 16.0369 106.381 15.4001C112.886 14.7846 119.388 14.1161 125.893 13.4873C127.17 13.3626 128.456 13.3547 129.724 13.1982C130.719 13.0761 130.942 13.49 130.908 14.3894C130.682 20.1304 130.499 25.8741 130.284 31.6152C130.043 38.0619 129.756 44.5087 129.531 50.958C129.096 63.4138 128.687 75.8722 128.265 88.3279C128.255 88.6808 128.207 89.0257 128.148 89.673ZM70.1013 36.0987C70.1013 33.6686 70.1304 31.2358 70.0906 28.8057C70.0615 26.9963 69.4805 26.5002 67.7242 26.6833C62.2325 27.2537 56.7435 27.8532 51.2492 28.3918C49.997 28.5138 49.5141 29.2699 49.5035 30.3205C49.4558 34.1647 49.4637 38.0088 49.5062 41.853C49.5194 42.9354 50.0421 43.6703 51.2783 43.7393C52.3793 43.8003 53.4724 43.986 54.568 44.1027C58.8261 44.5644 63.0921 44.9809 67.3448 45.4929C69.4752 45.7476 70.0747 45.3178 70.0959 43.1238C70.1225 40.7839 70.1039 38.4413 70.1013 36.0987ZM127.682 40.5265C127.814 40.5265 127.947 40.5292 128.08 40.5292C128.188 36.9079 128.276 33.2839 128.424 29.6626C128.464 28.7022 128.191 28.3308 127.175 28.3334C118.2 28.3626 109.225 28.3653 100.25 28.3308C99.1965 28.3281 98.8543 28.7261 98.833 29.7183C98.7932 31.4852 98.6367 33.2494 98.589 35.0163C98.5677 35.7591 98.2892 36.0271 97.557 36.0138C95.8325 35.982 94.1081 36.0403 92.3836 35.9926C91.4073 35.9661 91.0386 36.364 91.0333 37.3138C91.0227 39.2133 90.9033 41.1155 90.9192 43.015C90.9272 44.0603 90.4894 44.4317 89.4998 44.4317C87.9081 44.4317 86.3163 44.5484 84.7271 44.514C83.6792 44.4927 83.2149 44.8005 83.2202 45.9307C83.2282 47.4747 83.0186 49.0187 82.9868 50.5654C82.9682 51.4435 82.6048 51.7062 81.7717 51.6823C80.1375 51.6372 78.4979 51.7274 76.8664 51.6505C75.7097 51.5948 75.325 52.0272 75.2931 53.168C75.1446 58.4262 74.9827 63.6871 74.6909 68.9373C74.6087 70.4256 75.248 70.8581 76.4976 71.065C78.8906 71.4656 81.2756 71.9299 83.6606 72.3703C89.2584 73.4049 94.896 74.2698 100.438 75.5565C102.892 76.1269 104.402 75.4981 106.02 73.7896C107.829 71.8768 110.045 70.354 111.891 68.473C114.236 66.0854 116.298 63.4165 118.667 61.0553C119.55 60.1772 119.805 59.3362 119.94 58.2193C120.028 57.5136 120.335 56.5797 120.863 56.2242C122.691 54.9985 124.612 53.8869 126.594 52.9345C127.435 52.5286 127.695 52.0962 127.692 51.2605C127.674 47.6869 127.682 44.1054 127.682 40.5265ZM67.3528 51.494C67.3766 51.287 67.3979 51.0801 67.4217 50.8758C61.7735 50.1728 56.1413 49.3159 50.4692 48.8038C50.4453 48.9975 50.4241 49.1912 50.4002 49.3848C56.0484 50.0879 61.6993 50.7909 67.3528 51.494ZM49.9519 54.2212C49.9306 54.4122 49.9094 54.6006 49.8882 54.7916C53.3901 55.2294 56.8921 55.6644 60.394 56.1022C60.4152 55.9191 60.4338 55.7361 60.455 55.553C56.9637 55.0251 53.4777 54.4388 49.9519 54.2212Z" fill="white"/>
<path d="M77.2632 121.456C75.1462 120.944 73.3607 120.525 71.5806 120.079C63.8763 118.139 56.1694 116.2 48.4678 114.248C39.0072 111.849 29.552 109.44 20.0941 107.034C17.9956 106.501 15.9024 105.954 13.7986 105.453C12.9629 105.254 12.5889 104.798 12.3793 103.957C8.6704 89.0442 4.92439 74.1424 1.1943 59.2353C1.08022 58.7764 1.03512 58.3015 0.913086 57.564C2.55528 57.8558 4.00911 58.0946 5.45234 58.3758C18.1999 60.851 30.9475 63.3289 43.6951 65.8147C50.8475 67.2076 57.9973 68.603 65.1391 70.0462C65.545 70.1285 66.073 70.6007 66.1791 70.9907C66.7468 73.1078 67.1978 75.2567 67.6913 77.395C68.1609 79.4351 68.6464 81.4753 69.1027 83.5207C69.5325 85.4468 69.9437 87.3755 70.3469 89.3069C70.9598 92.2331 71.5381 95.1673 72.1695 98.0883C73.1644 102.699 74.1964 107.302 75.2045 111.91C75.8731 114.964 76.5231 118.02 77.2632 121.456ZM41.3896 88.7975C41.2411 86.317 40.5513 84.1177 38.9064 82.3136C36.7124 79.9074 33.5103 80.4035 32.0617 83.3112C30.5973 86.2453 31.3348 90.9464 33.6323 93.3315C36.0173 95.8067 39.2195 95.2602 40.5301 92.0846C40.9545 91.0446 41.1084 89.8959 41.3896 88.7975Z" fill="white"/>
<path d="M76.8826 117.055C75.3041 109.711 73.7786 102.612 72.1709 95.1358C73.8821 95.7115 75.3253 96.2633 76.811 96.6693C77.4185 96.8337 78.1826 96.8576 78.7582 96.6374C80.6047 95.9291 82.3849 95.0536 84.2128 94.2975C84.6266 94.1277 85.1652 94.0561 85.5923 94.1622C94.0315 96.2129 102.463 98.2929 110.894 100.375C111.058 100.415 111.207 100.511 111.451 100.819C100.131 106.4 88.6459 111.603 76.8826 117.055Z" fill="white"/>
<path d="M71.586 90.6519C75.4302 91.6043 79.1788 92.5328 82.9938 93.4773C82.9169 93.7505 82.9195 94.0052 82.8187 94.0556C80.1525 95.4272 77.5313 97.1968 74.4247 95.1221C74.2814 95.0266 74.1063 94.9762 73.9392 94.9178C71.8672 94.2042 71.2676 93.1908 71.586 90.6519Z" fill="white"/>
<path d="M62.2493 13.96C62.1989 14.3075 62.236 14.7054 62.0768 14.992C61.8805 15.3448 61.456 15.8887 61.2464 15.8409C60.8697 15.7534 60.5063 15.3342 60.2781 14.9654C60.1083 14.6948 60.0367 14.2359 60.1455 13.944C60.4001 13.2596 60.7875 12.6255 61.1218 11.9702C61.5834 12.5592 62.045 13.1455 62.5066 13.7344C62.4217 13.8087 62.3368 13.8857 62.2493 13.96Z" fill="white"/>
<path d="M55.7489 14.9307C55.1918 15.7319 54.7779 16.3288 54.3614 16.9231C53.982 16.2625 53.3135 15.6045 53.3029 14.9386C53.2923 14.2462 53.9157 13.5432 54.2606 12.8428C54.7222 13.4874 55.1812 14.1321 55.7489 14.9307Z" fill="white"/>
<path d="M46.7334 15.5255C47.1977 14.9605 47.6619 14.3954 48.1262 13.8276C48.4578 14.528 48.8239 15.2178 49.0999 15.9394C49.1768 16.1437 49.0601 16.4912 48.9195 16.6929C48.6648 17.0537 48.3252 17.3561 48.0201 17.6824C47.715 17.3057 47.3675 16.9528 47.1181 16.5416C46.9934 16.3374 47.0465 16.0243 47.0199 15.7617C46.9271 15.6821 46.8316 15.6025 46.7334 15.5255Z" fill="white"/>
<path d="M70.1013 36.0992C70.104 38.4418 70.1199 40.7844 70.0987 43.127C70.0775 45.321 69.4752 45.7508 67.3475 45.4961C63.0948 44.9867 58.8315 44.5676 54.5708 44.1059C53.4725 43.9866 52.3794 43.8008 51.2811 43.7425C50.0422 43.6735 49.5195 42.9386 49.5089 41.8562C49.4665 38.012 49.4585 34.1679 49.5062 30.3237C49.5195 29.2731 50.0024 28.517 51.2519 28.395C56.7462 27.8564 62.2353 27.2542 67.7269 26.6865C69.4805 26.5034 70.0615 26.9995 70.0934 28.8088C70.1305 31.2363 70.1013 33.6691 70.1013 36.0992ZM52.8596 32.6849C52.8464 32.8255 52.8331 32.9687 52.8198 33.1093C53.95 33.4436 55.1014 33.7222 56.2077 34.1228C57.6748 34.6534 58.988 34.5764 60.0863 33.3826C60.5878 32.8361 61.0228 32.791 61.702 33.1359C62.5165 33.5497 63.4158 33.8654 64.3152 34.0193C65.0076 34.1387 65.7558 33.9397 66.4774 33.8813C64.997 33.3348 63.5299 33.1359 62.2061 32.5867C61.1157 32.1357 60.3039 31.9951 59.5398 33.0032C58.8951 33.8548 58.017 34.0087 57.0513 33.7514C56.3748 33.5683 55.7328 33.2579 55.0536 33.0828C54.3347 32.8997 53.5918 32.8122 52.8596 32.6849ZM57.5899 39.5216C57.5687 39.6118 57.5474 39.6993 57.5262 39.7895C58.5741 39.7391 59.6592 39.8399 60.662 39.6012C62.3652 39.1953 63.9597 38.02 65.8354 39.19C65.0872 37.7759 63.8642 37.9961 62.7632 38.2163C61.0202 38.5612 59.3143 39.0759 57.5899 39.5216Z" fill="black"/>
<path d="M127.682 40.5269C127.682 44.1058 127.671 47.6873 127.69 51.2662C127.695 52.0992 127.435 52.5343 126.592 52.9402C124.61 53.8927 122.689 55.0069 120.861 56.2299C120.333 56.5854 120.023 57.5166 119.938 58.225C119.803 59.3419 119.545 60.1829 118.665 61.061C116.295 63.4195 114.234 66.0884 111.889 68.4787C110.042 70.3597 107.827 71.8852 106.018 73.7953C104.399 75.5038 102.89 76.1326 100.436 75.5622C94.8964 74.2755 89.2589 73.4106 83.6584 72.376C81.2707 71.9356 78.8884 71.4687 76.4954 71.0707C75.2458 70.8611 74.6064 70.4287 74.6887 68.943C74.9805 63.6901 75.1397 58.4319 75.2909 53.1737C75.3228 52.0329 75.7074 51.6005 76.8641 51.6562C78.4957 51.7331 80.1353 51.6403 81.7695 51.688C82.6025 51.7119 82.966 51.4493 82.9846 50.5711C83.0191 49.0244 83.226 47.4804 83.218 45.9364C83.2127 44.8062 83.677 44.4958 84.7249 44.5197C86.3141 44.5542 87.9058 44.4374 89.4976 44.4374C90.4872 44.4374 90.9249 44.0634 90.917 43.0207C90.9011 41.1212 91.0204 39.219 91.0311 37.3195C91.0364 36.3671 91.4051 35.9718 92.3814 35.9983C94.1032 36.046 95.8303 35.9877 97.5547 36.0195C98.2896 36.0328 98.5682 35.7648 98.5867 35.022C98.6345 33.2551 98.791 31.4909 98.8308 29.724C98.852 28.7318 99.1969 28.3312 100.248 28.3365C109.223 28.3683 118.198 28.3683 127.173 28.3391C128.189 28.3365 128.462 28.7079 128.422 29.6683C128.276 33.2896 128.189 36.9136 128.077 40.5349C127.95 40.5296 127.815 40.5269 127.682 40.5269ZM103.245 75.281C103.325 74.7822 103.415 74.4453 103.428 74.1057C103.731 67.2239 104.009 60.342 104.338 53.4602C104.389 52.4017 103.938 52.2027 103.02 52.2054C94.4959 52.2505 85.9718 52.2796 77.4478 52.2796C76.4476 52.2796 75.986 52.6192 75.9515 53.638C75.7791 58.7131 75.5907 63.7883 75.3758 68.8608C75.3413 69.6752 75.6225 70.0785 76.4237 70.2191C78.2914 70.5428 80.1538 70.9036 82.0162 71.2564C89.036 72.5856 96.0532 73.9174 103.245 75.281ZM118.967 59.57C119.065 59.1694 119.171 58.92 119.182 58.668C119.482 51.7782 119.76 44.8884 120.073 37.9986C120.121 36.9348 119.675 36.6217 118.667 36.627C110.178 36.6509 101.688 36.6562 93.1985 36.6217C92.1771 36.6191 91.7288 36.9879 91.7049 37.9801C91.6651 39.5719 91.6757 41.169 91.5325 42.7501C91.4131 44.0501 91.88 44.4135 93.1534 44.4029C99.1227 44.3472 105.092 44.3791 111.061 44.3844C112.809 44.387 112.825 44.4056 112.767 46.1964C112.648 49.8628 112.528 53.5318 112.398 57.1983C112.372 57.9358 112.496 58.5035 113.374 58.6415C115.192 58.9227 117.012 59.2411 118.967 59.57ZM127.016 40.19C127.133 40.19 127.25 40.19 127.366 40.19C127.496 36.8366 127.618 33.4833 127.764 30.1299C127.796 29.4136 127.698 28.9652 126.801 28.9679C118.057 28.9891 109.313 28.9838 100.569 28.9705C99.8416 28.9705 99.5524 29.2226 99.5312 29.9681C99.4914 31.4245 99.3561 32.8757 99.2845 34.3322C99.2049 35.9983 99.2208 36.0116 100.948 36.0062C107.042 35.9824 113.136 35.9824 119.23 35.9001C120.463 35.8842 120.829 36.2556 120.758 37.4866C120.53 41.4528 120.434 45.427 120.222 49.3958C120.169 50.396 120.53 50.8683 121.477 51.0248C122.782 51.2423 124.103 51.4095 125.374 51.7543C126.7 52.1152 127.024 51.5448 127.019 50.3828C127.005 46.9869 127.016 43.5885 127.016 40.19ZM111.406 56.3175C111.634 56.3175 111.862 56.3175 112.09 56.3175C112.09 53.0039 112.053 49.693 112.114 46.3794C112.133 45.3766 111.82 45.0741 110.838 45.0927C107.48 45.1537 104.121 45.1431 100.76 45.1537C95.5889 45.1696 90.4156 45.2041 85.2449 45.1696C84.2076 45.1617 83.8362 45.4721 83.8733 46.5174C83.9158 47.7059 83.868 48.9104 83.7221 50.0909C83.5735 51.314 83.9556 51.7146 85.2184 51.6986C91.1398 51.6164 97.0639 51.6217 102.988 51.5978C105.044 51.5899 105.06 51.5899 104.983 53.5982C104.835 57.5723 104.694 61.5492 104.49 65.5207C104.442 66.4545 104.728 66.8896 105.657 67.0408C107.05 67.2663 108.429 67.5714 109.809 67.8739C110.955 68.1232 111.432 67.7253 111.417 66.5261C111.379 63.1224 111.406 59.7186 111.406 56.3175Z" fill="black"/>
<path d="M67.3527 51.4938C61.7018 50.7908 56.0483 50.0878 50.3975 49.3847C50.4213 49.191 50.4426 48.9974 50.4664 48.8037C56.1385 49.3157 61.7708 50.17 67.419 50.8757C67.3978 51.08 67.3739 51.2869 67.3527 51.4938Z" fill="black"/>
<path d="M49.9526 54.2212C53.4784 54.4387 56.9645 55.0277 60.4584 55.553C60.4372 55.736 60.4186 55.9191 60.3974 56.1022C56.8955 55.6644 53.3935 55.2293 49.8916 54.7916C49.9102 54.6006 49.9314 54.4096 49.9526 54.2212Z" fill="black"/>
<path d="M41.3892 88.7978C41.1107 89.8961 40.9542 91.0475 40.527 92.0848C39.2191 95.2605 36.017 95.8096 33.6293 93.3317C31.3318 90.9467 30.5943 86.2456 32.0587 83.3114C33.5099 80.4038 36.712 79.9077 38.9034 82.3139C40.5509 84.1153 41.238 86.3173 41.3892 88.7978Z" fill="black"/>
<path d="M52.8611 32.6842C53.5933 32.8116 54.3361 32.8991 55.0551 33.0822C55.7343 33.2546 56.3763 33.5677 57.0528 33.7507C58.0185 34.0107 58.8966 33.8542 59.5413 33.0026C60.3053 31.9945 61.1172 32.1351 62.2075 32.5861C63.5314 33.1326 64.9985 33.3342 66.4788 33.8807C65.7546 33.9391 65.0091 34.1354 64.3167 34.0187C63.4199 33.8648 62.5179 33.5491 61.7035 33.1353C61.0243 32.7904 60.5892 32.8381 60.0878 33.382C58.9895 34.5758 57.6762 34.6528 56.2091 34.1222C55.1029 33.7216 53.9515 33.443 52.8213 33.1087C52.8319 32.9655 52.8452 32.8249 52.8611 32.6842Z" fill="white"/>
<path d="M57.5898 39.5218C59.3115 39.0788 61.0201 38.5641 62.7604 38.2139C63.8614 37.9937 65.0844 37.7735 65.8326 39.1875C63.9569 38.0176 62.3625 39.1929 60.6593 39.5988C59.6564 39.8375 58.5714 39.7367 57.5234 39.7871C57.5473 39.6996 57.5685 39.6094 57.5898 39.5218Z" fill="white"/>
<path d="M103.246 75.2813C96.0508 73.9177 89.0363 72.5859 82.0192 71.2567C80.1568 70.9039 78.2944 70.5431 76.4267 70.2194C75.6255 70.0815 75.3443 69.6782 75.3788 68.8611C75.5937 63.7886 75.7794 58.7134 75.9545 53.6383C75.989 52.6222 76.4506 52.28 77.4507 52.28C85.9748 52.28 94.4988 52.2508 103.023 52.2057C103.941 52.2004 104.394 52.402 104.341 53.4605C104.012 60.3397 103.734 67.2242 103.431 74.106C103.415 74.4456 103.325 74.7825 103.246 75.2813ZM93.2917 67.6221C93.4058 67.5532 93.5172 67.4815 93.6313 67.4126C93.4827 67.1048 93.3766 66.7652 93.1776 66.492C92.2385 65.2132 91.3205 63.9133 90.2965 62.7009C89.7128 62.0111 89.8004 61.5733 90.4716 61.0852C91.5062 60.3344 92.5329 59.5703 93.5464 58.7904C93.8833 58.533 94.1698 58.212 94.4802 57.9202C94.4006 57.8141 94.3184 57.7079 94.2388 57.6018C93.9496 57.7292 93.6313 57.8114 93.3819 57.9918C92.273 58.7904 91.1322 59.5571 90.1081 60.4564C89.352 61.1197 88.8824 61.0348 88.2563 60.3211C87.296 59.2308 86.256 58.2067 85.224 57.18C84.9879 56.9465 84.6456 56.8219 84.3512 56.6468C84.2716 56.7502 84.1946 56.851 84.115 56.9545C84.7093 57.578 85.3195 58.1855 85.8952 58.8249C89.0416 62.3241 89.2459 61.316 85.7121 64.4704C85.4097 64.741 85.2054 65.1257 84.956 65.4547C85.0568 65.5342 85.155 65.6138 85.2532 65.6961C86.195 64.8047 87.1633 63.9372 88.0733 63.0113C88.7896 62.2817 89.3228 62.3958 89.8747 63.189C90.3018 63.8045 90.8059 64.3643 91.2622 64.9586C91.944 65.8446 92.6152 66.736 93.2917 67.6221Z" fill="white"/>
<path d="M118.968 59.5701C117.012 59.2438 115.192 58.9228 113.37 58.6389C112.492 58.5009 112.367 57.9332 112.393 57.1957C112.526 53.5293 112.646 49.8602 112.762 46.1938C112.821 44.4057 112.805 44.3844 111.056 44.3818C105.087 44.3765 99.1179 44.3446 93.1487 44.4003C91.8753 44.411 91.4084 44.0475 91.5278 42.7475C91.671 41.1664 91.6631 39.5693 91.7002 37.9775C91.7241 36.9853 92.1724 36.6165 93.1938 36.6192C101.683 36.651 110.173 36.6483 118.662 36.6245C119.671 36.6218 120.116 36.9349 120.069 37.9961C119.755 44.8858 119.477 51.7756 119.177 58.6654C119.169 58.9201 119.063 59.1695 118.968 59.5701Z" fill="white"/>
<path d="M127.016 40.1897C127.016 43.5882 127.005 46.9866 127.021 50.3851C127.027 51.5444 126.703 52.1175 125.376 51.7567C124.106 51.4118 122.785 51.242 121.479 51.0271C120.532 50.8706 120.171 50.3984 120.224 49.3982C120.437 45.4293 120.532 41.4552 120.76 37.4889C120.832 36.258 120.463 35.8865 119.232 35.9025C113.138 35.9821 107.044 35.9847 100.95 36.0086C99.2234 36.0139 99.2075 36.0006 99.2871 34.3346C99.3587 32.8781 99.494 31.4269 99.5338 29.9704C99.5524 29.2249 99.8442 28.9729 100.571 28.9729C109.315 28.9861 118.06 28.9915 126.804 28.9702C127.7 28.9676 127.799 29.4159 127.767 30.1322C127.621 33.4856 127.499 36.839 127.369 40.1923C127.249 40.1897 127.133 40.1897 127.016 40.1897Z" fill="white"/>
<path d="M111.407 56.3178C111.407 59.7189 111.38 63.12 111.42 66.5211C111.433 67.7203 110.956 68.1182 109.812 67.8689C108.433 67.5664 107.053 67.264 105.66 67.0358C104.732 66.8846 104.445 66.4495 104.493 65.5157C104.695 61.5442 104.838 57.5673 104.986 53.5932C105.061 51.5849 105.047 51.5849 102.991 51.5928C97.0673 51.6194 91.1432 51.6114 85.2217 51.6936C83.9589 51.7122 83.5742 51.309 83.7254 50.0859C83.8687 48.9054 83.9191 47.7009 83.8767 46.5124C83.8395 45.4644 84.2109 45.1567 85.2482 45.1646C90.4189 45.1991 95.5922 45.1646 100.763 45.1487C104.122 45.1381 107.483 45.1487 110.842 45.0877C111.826 45.0691 112.136 45.3716 112.118 46.3744C112.057 49.6853 112.094 52.9989 112.094 56.3125C111.863 56.3178 111.635 56.3178 111.407 56.3178Z" fill="white"/>
</g>
<defs>
<clipPath id="clip0_86_13241">
<rect width="132.097" height="122" fill="white"/>
</clipPath>
</defs>
</svg>
