<svg width="20" height="20" viewBox="0 0 20 20" fill="none" xmlns="http://www.w3.org/2000/svg">
<path fill-rule="evenodd" clip-rule="evenodd" d="M10.0067 1.80566C5.3948 1.80566 1.6665 5.56145 1.6665 10.2079C1.6665 13.922 4.05535 17.0659 7.36932 18.1787C7.78365 18.2623 7.93542 17.9979 7.93542 17.7754C7.93542 17.5806 7.92176 16.913 7.92176 16.2173C5.60171 16.7182 5.11858 15.2157 5.11858 15.2157C4.74573 14.2419 4.19329 13.9916 4.19329 13.9916C3.43394 13.4769 4.24861 13.4769 4.24861 13.4769C5.09092 13.5326 5.53291 14.3394 5.53291 14.3394C6.27844 15.6191 7.47977 15.2575 7.96307 15.0349C8.03204 14.4924 8.25312 14.1168 8.48786 13.9082C6.63745 13.7134 4.69059 12.99 4.69059 9.76263C4.69059 8.84451 5.02178 8.09336 5.54657 7.50916C5.46377 7.30055 5.17372 6.43791 5.62954 5.28335C5.62954 5.28335 6.33375 5.06073 7.92159 6.14581C8.6014 5.96189 9.30248 5.86833 10.0067 5.86754C10.7109 5.86754 11.4288 5.96502 12.0917 6.14581C13.6797 5.06073 14.3839 5.28335 14.3839 5.28335C14.8397 6.43791 14.5495 7.30055 14.4667 7.50916C15.0053 8.09336 15.3229 8.84451 15.3229 9.76263C15.3229 12.99 13.376 13.6994 11.5118 13.9082C11.8157 14.1724 12.0779 14.6731 12.0779 15.4661C12.0779 16.5929 12.0642 17.4972 12.0642 17.7753C12.0642 17.9979 12.2162 18.2623 12.6303 18.1788C15.9443 17.0658 18.3331 13.922 18.3331 10.2079C18.3468 5.56145 14.6048 1.80566 10.0067 1.80566Z" fill="#737373"/>
</svg>
