<svg width="88" height="88" viewBox="0 0 88 88" fill="none" xmlns="http://www.w3.org/2000/svg">
  <path fill-rule="evenodd" clip-rule="evenodd" d="M69.3985 17.8729C71.1916 19.6658 72.1993 22.0974 72.2 24.633C72.2023 26.8681 71.4164 29.0324 69.9804 30.7453C68.5444 32.4582 66.5504 33.61 64.349 33.998V34.1876C66.5344 34.6137 68.5036 35.7864 69.9194 37.5047C71.3351 39.223 72.1093 41.3801 72.1093 43.6064C72.1093 45.8327 71.3351 47.9898 69.9194 49.7081C68.5036 51.4264 66.5344 52.5991 64.349 53.0252V53.2134C66.6856 53.6659 68.7701 54.972 70.1962 56.8773C71.6224 58.7825 72.2881 61.1504 72.0635 63.5196C71.839 65.8888 70.7404 68.0896 68.9817 69.6931C67.223 71.2966 64.9303 72.188 62.5502 72.1935C57.9579 72.1935 54.0768 68.8855 53.1774 64.5316H52.9408C52.512 66.6983 51.3421 68.6482 49.632 70.0464C47.9219 71.4445 45.7783 72.2037 43.5693 72.1935C38.977 72.1935 35.0959 68.8855 34.1965 64.5316H33.9599C33.6143 66.2325 32.8128 67.8076 31.641 69.0882C30.4693 70.3688 28.9715 71.3069 27.3077 71.8021C25.644 72.2973 23.8769 72.3309 22.1955 71.8995C20.5141 71.468 18.9816 70.5877 17.7619 69.3526C16.5423 68.1175 15.6813 66.5741 15.2711 64.8876C14.861 63.201 14.917 61.4347 15.4333 59.7776C15.9496 58.1204 16.9067 56.6347 18.2022 55.4795C19.4977 54.3242 21.083 53.5428 22.7884 53.2188V53.0306C20.603 52.6045 18.6337 51.4318 17.218 49.7135C15.8022 47.9952 15.0281 45.8381 15.0281 43.6118C15.0281 41.3854 15.8022 39.2284 17.218 37.5101C18.6337 35.7917 20.603 34.6191 22.7884 34.1929V34.0034C21.0847 33.6728 19.5027 32.8862 18.2109 31.7274C16.9192 30.5685 15.9661 29.081 15.4533 27.4232C14.9405 25.7655 14.8871 23.9996 15.299 22.3139C15.7108 20.6283 16.5723 19.0859 17.7918 17.8512C19.0112 16.6166 20.5429 15.7359 22.2235 15.3031C23.9041 14.8703 25.6706 14.9015 27.3348 15.3935C28.9991 15.8855 30.4986 16.8198 31.6736 18.0968C32.8486 19.3738 33.655 20.9457 34.007 22.6449H34.2436C34.6954 20.4915 35.8758 18.5596 37.5858 17.1748C39.2958 15.79 41.431 15.0369 43.6315 15.0425C45.832 15.048 47.9634 15.8118 49.6665 17.2052C51.3695 18.5985 52.5402 20.5363 52.9811 22.692H53.2178C54.1682 18.3381 57.9996 15.0246 62.6376 15.0717C65.1735 15.0724 67.6053 16.08 69.3985 17.8729ZM31.9823 29.5165C30.2472 29.5165 28.8497 30.9389 28.8758 32.6738C28.9236 35.8456 28.9876 40.7732 28.9876 44.421C28.9876 48.0656 28.9237 52.9878 28.8759 56.1599C28.8498 57.8992 30.2516 59.3256 31.9912 59.3256H55.6872C57.4267 59.3256 58.8286 57.8992 58.8024 56.1599C58.7546 52.9878 58.6908 48.0656 58.6908 44.421C58.6908 40.7732 58.7547 35.8456 58.8025 32.6738C58.8287 30.9389 57.433 29.5165 55.6979 29.5165L31.9823 29.5165Z" fill="#FFFFFF"/>
</svg>
