<svg width="88" height="88" viewBox="0 0 88 88" fill="none" xmlns="http://www.w3.org/2000/svg">
  <path d="M74.4066 73.7063L59.3305 69.249L47.9614 75.9975L40.0287 75.9941L28.6527 69.249L13.5835 73.7063L9 58.3408L13.584 41.2875L9 26.8697L13.584 9L37.1306 22.969H50.8595L74.4066 9L78.9906 26.8697L74.4066 41.2875L78.9906 58.3408L74.4066 73.7063Z" fill="#FF5C16"/>
  <path d="M13.587 9L37.1341 22.9788L36.198 32.5722L13.587 9ZM28.6567 58.3471L39.0172 66.1838L28.6567 69.2485V58.3471ZM38.189 45.3909L36.198 32.5791L23.452 41.2915L23.4451 41.288V41.2944L23.4846 50.2623L28.6532 45.3914L38.189 45.3909ZM74.4066 9L50.8595 22.9788L51.7927 32.5722L74.4066 9ZM59.3374 58.3471L48.9764 66.1838L59.3374 69.2485V58.3471ZM64.5455 41.2939V41.2875L64.5425 41.291L51.7961 32.5791L49.8051 45.3909H59.3369L64.509 50.2613L64.5455 41.2939Z" fill="#FF5C16"/>
  <path d="M28.6532 69.2485L13.584 73.7058L9 58.3471H28.6532V69.2485ZM38.1856 45.3875L41.0639 63.9097L37.0744 53.6109L23.4782 50.2613L28.6498 45.388L38.1856 45.3875ZM59.3369 69.2485L74.4066 73.7058L78.9906 58.3467H59.3369C59.3369 58.3471 59.3369 69.2485 59.3369 69.2485ZM49.8051 45.3875L46.9267 63.9097L50.9157 53.6109L64.513 50.2613L59.3379 45.388L49.8051 45.3875Z" fill="#E34807"/>
  <path d="M9 58.3408L13.584 41.2876H23.4417L23.4777 50.2584L37.0754 53.6079L41.0644 63.9063L39.0137 66.174L28.6532 58.3374H9V58.3408ZM78.9906 58.3408L74.4066 41.2876H64.5485L64.5125 50.2584L50.9157 53.6079L46.9262 63.9063L48.9764 66.174L59.3374 58.3374H78.9906V58.3408ZM50.8595 22.969H37.1306L36.1985 32.5624L41.0649 63.896H46.9267L51.7961 32.5624L50.8595 22.969Z" fill="#FF8D5D"/>
  <path d="M13.584 9L9 26.8697L13.584 41.2875H23.4417L36.1945 32.5727L13.584 9ZM35.3368 49.1076H30.8711L28.4398 51.4743L37.0784 53.6006L35.3368 49.1042V49.1076ZM74.4066 9L78.9906 26.8697L74.4066 41.2875H64.5485L51.7961 32.5727L74.4066 9ZM52.6603 49.1076H57.1324L59.5637 51.4772L50.9152 53.6079L52.6603 49.1042V49.1076ZM47.958 69.8848L48.9769 66.1809L46.9262 63.9131H41.06L39.0098 66.1809L40.0282 69.8848" fill="#661800"/>
  <path d="M47.958 69.8843V76.0005H40.0292V69.8843H47.958Z" fill="#C0C4CD"/>
  <path d="M28.6567 69.2421L40.0356 75.9971V69.8809L39.0167 66.1775L28.6567 69.2421ZM59.3374 69.2421L47.958 75.9971V69.8809L48.9769 66.1775L59.3374 69.2421Z" fill="#E7EBF6"/>
</svg>
